<?xml version="1.0" encoding="UTF-8"?>
<svg version="1.1" xmlns="http://www.w3.org/2000/svg" width="600" height="429">
<path d="M0 0 C1.57309937 0.01522705 1.57309937 0.01522705 3.17797852 0.03076172 C13.19375012 0.22642077 22.81561525 1.39250659 32.625 3.375 C33.52105957 3.55240723 34.41711914 3.72981445 35.34033203 3.91259766 C54.56876872 7.83819538 73.00645898 14.22609307 91.51104736 20.64538574 C93.53600904 21.34428546 95.56376076 22.03413333 97.59326172 22.71972656 C101.08847323 23.90209934 104.5764945 25.10329836 108.0625 26.3125 C109.07376953 26.65321533 110.08503906 26.99393066 111.12695312 27.3449707 C116.458971 29.23501705 119.91208394 30.93664741 123.625 35.375 C124.55207289 36.36170035 125.48467558 37.34322552 126.421875 38.3203125 C127.40812468 39.37846414 128.39243783 40.43842339 129.375 41.5 C130.15508423 42.34171753 130.15508423 42.34171753 130.95092773 43.20043945 C135.1048295 47.72252942 138.98913797 52.40238591 142.78515625 57.23046875 C144.62444134 59.56985326 144.62444134 59.56985326 147.625 61.375 C150.91034095 61.31844423 150.91034095 61.31844423 154.70410156 60.77587891 C155.42171661 60.68838882 156.13933167 60.60089874 156.87869263 60.51075745 C158.43930789 60.31891877 159.99926546 60.12167096 161.55860138 59.91969681 C164.04011881 59.59839105 166.5230341 59.29124787 169.0067749 58.98764038 C174.29784181 58.33807899 179.58643399 57.66956796 184.875 57 C190.96641315 56.23093292 197.05870823 55.46987457 203.1528244 54.72251511 C205.57463385 54.42224448 207.99481419 54.11076959 210.4151001 53.79849243 C229.05900322 51.44870626 246.8271531 52.95712561 265.46484375 54.78125 C268.04409459 55.02849169 270.62340582 55.27510412 273.20277405 55.52111816 C279.25892023 56.10025323 285.31442981 56.68565193 291.36966664 57.27420855 C298.27381466 57.94491565 305.17874101 58.60743552 312.08373821 59.26933384 C326.26503057 60.62890399 340.44533736 61.9985416 354.625 63.375 C349.54854276 72.04179906 342.02159306 77.07133268 332.375 79.75 C327.27102414 80.59042357 322.54588378 80.12305274 317.44750977 79.56298828 C316.56746308 79.47038286 315.6874164 79.37777744 314.78070164 79.2823658 C305.74225659 78.31433367 296.72777959 77.17101906 287.71484375 75.9921875 C286.00187557 75.77053854 284.28886704 75.54920127 282.57582092 75.32815552 C278.13981481 74.75517258 273.70421127 74.17914089 269.26873779 73.60205078 C262.1132507 72.67120323 254.95737405 71.74339396 247.80105782 70.81894302 C245.31522498 70.49709214 242.82971633 70.17281915 240.34422302 69.84835815 C238.83227802 69.65255002 237.32032089 69.45683555 235.80834961 69.26123047 C235.12119873 69.17086517 234.43404785 69.08049988 233.72607422 68.98739624 C230.99723622 68.63630723 228.38049633 68.375 225.625 68.375 C223.8823612 70.53238117 223.8823612 70.53238117 222.25390625 73.39453125 C221.60236572 74.4714624 220.9508252 75.54839355 220.27954102 76.65795898 C219.582048 77.8343861 218.88470399 79.01090157 218.1875 80.1875 C217.11413312 81.97266084 216.03713161 83.75559633 214.96006775 85.53852844 C214.23468575 86.74011993 213.51062189 87.94250812 212.78785706 89.14567566 C209.02989251 95.39492838 205.11458451 101.54141208 201.16821289 107.6730957 C200.7118042 108.38812256 200.25539551 109.10314941 199.78515625 109.83984375 C199.38949463 110.454646 198.99383301 111.06944824 198.58618164 111.70288086 C197.46399255 113.52698064 197.46399255 113.52698064 196.625 116.375 C176.14096598 112.67054411 155.72847329 108.64660135 135.32171631 104.54180908 C131.27792505 103.72886863 127.23366606 102.91826149 123.18945312 102.10742188 C115.33419187 100.53215178 107.47942697 98.95442466 99.625 97.375 C101.03551105 100.54195861 102.45094024 103.70669667 103.8671875 106.87109375 C104.26188232 107.75744507 104.65657715 108.64379639 105.06323242 109.55700684 C107.98531874 116.0770056 111.13774462 122.42437384 114.5078125 128.72265625 C115.625 131.375 115.625 131.375 114.625 134.375 C113.99335938 133.84132812 113.36171875 133.30765625 112.7109375 132.7578125 C107.01573612 128.0145468 101.21482713 123.5770196 95.16040039 119.31005859 C90.6942885 116.15659106 86.30222226 112.91720129 81.9375 109.625 C73.68689198 103.40640805 65.3723927 97.27701808 57.04833984 91.15722656 C53.07177482 88.23269254 49.09853729 85.30364567 45.125 82.375 C43.54168304 81.20831112 41.95834969 80.04164447 40.375 78.875 C30.875 71.875 30.875 71.875 28.49780273 70.12329102 C26.92190826 68.96216535 25.3459 67.80119411 23.76977539 66.64038086 C18.85633036 63.02125875 13.94761205 59.39582057 9.04125977 55.76708984 C5.90131408 53.44947407 2.75272986 51.14373447 -0.39550781 48.83740234 C-2.06595773 47.60331317 -3.7186951 46.34530153 -5.3671875 45.08203125 C-15.17307763 37.73544583 -27.30126577 34.13827525 -39.5625 35.8125 C-40.490625 35.998125 -41.41875 36.18375 -42.375 36.375 C-43.06207555 38.86564888 -43.375 40.75386292 -43.375 43.375 C-46.2701683 43.07549983 -47.21323494 42.56565168 -49.125 40.3125 C-50.73937531 36.51871802 -51.38702517 33.37101115 -50.375 29.375 C-48.4433838 26.29803444 -45.96029522 23.90923912 -43.375 21.375 C-42.62605469 20.56804688 -41.87710938 19.76109375 -41.10546875 18.9296875 C-29.19435492 6.34508581 -17.38449729 -0.24776006 0 0 Z M-24.375 16.375 C-24.54166667 18.875 -24.54166667 18.875 -24.375 21.375 C-23.3154123 22.65822547 -23.3154123 22.65822547 -20.875 22.5 C-18.4345877 22.65822547 -18.4345877 22.65822547 -17.375 21.375 C-17.20833333 18.875 -17.20833333 18.875 -17.375 16.375 C-18.4345877 15.09177453 -18.4345877 15.09177453 -20.875 15.25 C-23.3154123 15.09177453 -23.3154123 15.09177453 -24.375 16.375 Z M39.625 23.375 C49.33453473 24.66346906 58.80503888 25.71557669 68.625 25.375 C61.70438867 20.76125911 46.76365561 18.61589626 39.625 23.375 Z M27.625 28.375 C26.965 29.035 26.305 29.695 25.625 30.375 C34.92662921 32.84806592 44.30405741 34.80564687 53.74633789 36.64697266 C56.21596059 37.13057314 58.6831026 37.62573655 61.15039062 38.12109375 C62.72642404 38.43039387 64.30259122 38.73901335 65.87890625 39.046875 C66.6132338 39.19574158 67.34756134 39.34460815 68.10414124 39.49798584 C71.42583837 40.13397042 73.3594425 40.46351917 76.625 39.375 C66.00438786 31.51574702 53.12441999 31.07541223 40.375 29.5625 C39.15965576 29.41409668 37.94431152 29.26569336 36.69213867 29.11279297 C35.55107666 28.98662598 34.41001465 28.86045898 33.234375 28.73046875 C32.20280273 28.61340576 31.17123047 28.49634277 30.10839844 28.37573242 C28.87911621 28.37536987 28.87911621 28.37536987 27.625 28.375 Z M16.625 34.375 C17.97198343 37.06896687 19.29134084 37.27993671 22.04614258 38.45043945 C23.4594561 39.05665886 23.4594561 39.05665886 24.90132141 39.67512512 C25.93033066 40.10846664 26.9593399 40.54180817 28.01953125 40.98828125 C29.60612801 41.66542427 29.60612801 41.66542427 31.22477722 42.35624695 C34.62640891 43.80621885 38.03189162 45.24689667 41.4375 46.6875 C43.69231111 47.64719033 45.94687156 48.6074698 48.20117188 49.56835938 C53.35273992 51.76162505 58.50516046 53.95274522 63.66494751 56.12661743 C65.76587951 57.01267161 67.86459803 57.90398238 69.96176147 58.79891968 C71.04389923 59.25739288 72.12603699 59.71586609 73.2409668 60.18823242 C74.22453659 60.60707199 75.20810638 61.02591156 76.22148132 61.45744324 C78.50762841 62.49388352 78.50762841 62.49388352 80.625 62.375 C79.51337327 57.65058638 76.91254424 55.49904047 73.07275391 52.85791016 C70.73676828 51.442712 68.62332334 50.50929413 66.05078125 49.61328125 C65.08615967 49.27433838 64.12153809 48.93539551 63.12768555 48.58618164 C61.97179932 48.1864917 60.81591309 47.78680176 59.625 47.375 C58.16750934 46.86316142 56.71024962 46.35066491 55.25317383 45.83764648 C51.1181934 44.38470801 46.97760522 42.94855409 42.83447266 41.51904297 C41.09968148 40.91892911 39.36596661 40.31569554 37.63330078 39.70947266 C35.10437427 38.82499 32.57217778 37.9505274 30.0390625 37.078125 C29.26817291 36.80631409 28.49728333 36.53450317 27.70303345 36.25445557 C23.88913897 34.95304442 20.71648107 34.02485099 16.625 34.375 Z M8.625 38.375 C12.86645626 43.03633287 17.691582 46.26730311 22.96484375 49.6796875 C23.87623611 50.27659897 24.78762848 50.87351044 25.72663879 51.48851013 C27.66817181 52.75936381 29.61143278 54.02758093 31.55627441 55.29336548 C36.55949689 58.54976708 41.55055136 61.8247237 46.54296875 65.09765625 C48.00000717 66.05175636 48.00000717 66.05175636 49.48648071 67.02513123 C59.62724235 73.67202565 69.65713448 80.4714185 79.625 87.375 C80.285 87.045 80.945 86.715 81.625 86.375 C81.109375 85.17875 80.59375 83.9825 80.0625 82.75 C79.77246094 82.07710937 79.48242188 81.40421875 79.18359375 80.7109375 C74.08140536 73.06404864 65.21083711 68.96141451 57.4375 64.5 C56.16249169 63.76218293 54.88775655 63.02389364 53.61328125 62.28515625 C50.96558357 60.75240251 48.31510393 59.22461126 45.66259766 57.70019531 C42.31183315 55.77334618 38.96977981 53.83196047 35.63053894 51.88522339 C33.07704373 50.39802223 30.51980845 48.91734862 27.96151733 47.43841553 C26.74448746 46.73370752 25.52866886 46.02690317 24.31411743 45.31793213 C22.61963086 44.33011432 20.91930399 43.35233561 19.21875 42.375 C18.25646484 41.818125 17.29417969 41.26125 16.30273438 40.6875 C13.69819508 39.4108768 11.48264286 38.79027962 8.625 38.375 Z " fill="#F8BB00" transform="translate(184.375,38.625)"/>
<path d="M0 0 C-0.07847687 2.66821352 -0.55015907 4.46046686 -2.2734375 6.52734375 C-14.83835528 18.11892283 -34.87748662 18.41404087 -51.07324219 19.9453125 C-52.83464379 20.11756864 -54.59597933 20.29050142 -56.35725403 20.46405029 C-61.09912962 20.92943993 -65.84185177 21.38559981 -70.58478069 21.84011078 C-75.58948722 22.32145499 -80.5933093 22.81182548 -85.597229 23.30126953 C-95.08380665 24.22787942 -104.57108496 25.1470893 -114.05867028 26.06331825 C-127.89990298 27.40025374 -141.74018466 28.74696916 -155.58031082 30.0953064 C-156.60587294 30.19521692 -157.63143507 30.29512745 -158.68807483 30.39806557 C-160.73759713 30.59773771 -162.78711716 30.79743312 -164.83663487 30.99715233 C-170.75325988 31.57344162 -176.67013128 32.14711181 -182.58722425 32.71857548 C-207.10315104 35.08490002 -207.10315104 35.08490002 -231.59863281 37.65234375 C-232.65355801 37.7654892 -233.7084832 37.87863464 -234.79537582 37.99520874 C-256.15927667 40.38122773 -276.13205518 47.99283395 -292.625 62 C-295 64 -295 64 -297 64 C-298.7265625 62.25 -298.7265625 62.25 -300.625 60 C-301.25664062 59.2575 -301.88828125 58.515 -302.5390625 57.75 C-303.02117187 57.1725 -303.50328125 56.595 -304 56 C-300.51411529 46.63302146 -286.17334734 40.78352959 -277.8125 36.6875 C-277.02576904 36.29159668 -276.23903809 35.89569336 -275.4284668 35.48779297 C-260.77585588 28.58921116 -244.67638682 26.20483026 -228.7265625 24.51879883 C-226.90265215 24.31509598 -225.07889455 24.11002141 -223.25527954 23.90369129 C-219.43417783 23.47343125 -215.6123354 23.05096024 -211.78967285 22.63479996 C-206.1175541 22.01588264 -200.44864831 21.37081336 -194.78027344 20.71859741 C-182.9803125 19.36277786 -171.17787053 18.02944135 -159.375 16.69921875 C-157.24228754 16.45869729 -155.10957679 16.21816072 -152.97686768 15.97760963 C-142.99361238 14.85176508 -133.01021557 13.72718603 -123.02663231 12.60425347 C-111.59827616 11.31876937 -100.17045806 10.02862331 -88.74304771 8.73475903 C-79.81686579 7.72440008 -70.89021092 6.71829276 -61.96319008 5.71537334 C-56.66580186 5.12012649 -51.36863119 4.52308463 -46.07196045 3.92148399 C-41.1209908 3.35924829 -36.16945455 2.80229908 -31.21743774 2.24936485 C-29.40886912 2.04650908 -27.60051015 1.84177336 -25.79238892 1.6349678 C-17.17486609 0.65036215 -8.69093841 -0.27400536 0 0 Z " fill="#F8BB00" transform="translate(600,0)"/>
<path d="M0 0 C11.87109036 0.57622727 23.56855973 1.81389408 35.35180664 3.32910156 C37.23795515 3.56784553 39.12415675 3.80617034 41.01040649 4.04411316 C46.08792925 4.68608878 51.16459381 5.33461352 56.24105 5.98496342 C60.50427309 6.53067747 64.76785759 7.07354034 69.03142446 7.6165607 C79.10711922 8.90005203 89.18206122 10.18933892 99.2565918 11.48193359 C109.5878906 12.80733722 119.92058669 14.12141428 130.25401217 15.43012452 C139.17870019 16.5609258 148.10235198 17.69967153 157.02526373 18.84440398 C162.33094489 19.52495141 167.63696245 20.20250073 172.94404793 20.87201691 C271.68323992 33.34290555 271.68323992 33.34290555 297.62890625 61.15234375 C299 63 299 63 299 65 C293.83028084 63.34931774 288.78022448 61.54886949 283.77587891 59.45043945 C257.84245778 48.62027335 230.79228228 39.62348011 202.79296875 36.50390625 C201.65559265 36.37520645 200.51821655 36.24650665 199.34637451 36.11390686 C189.21977855 34.98737563 179.08115833 34.06765602 168.92895508 33.20846558 C142.5822715 30.96274517 116.25573466 28.47042798 89.93528366 25.9385767 C84.16001488 25.38303898 78.38444043 24.83147657 72.60778809 24.29049683 C67.08297596 23.77282922 61.55945228 23.24301515 56.03662872 22.70455933 C53.98362121 22.5063562 51.93021478 22.3122336 49.87639618 22.12261963 C11.95981246 18.61137885 11.95981246 18.61137885 0.99609375 5.74609375 C0 4 0 4 0 0 Z " fill="#F8BB00" transform="translate(0,0)"/>
<path d="M0 0 C4.34152099 3.43343393 7.15219442 7.49742977 9.8125 12.3125 C10.15410156 12.92738281 10.49570312 13.54226562 10.84765625 14.17578125 C14.41237426 21.91868037 14.09543791 31.80321646 11.1875 39.6875 C6.63139989 49.35339294 0.00945135 56.51635468 -10.11328125 60.44921875 C-21.1113869 63.60172374 -29.53911426 62.37077813 -39.52734375 56.90625 C-47.63486327 52.04888148 -52.00624846 45.66648105 -55.5625 36.9375 C-57.39740217 26.2950674 -56.34691495 17.14428518 -50.6796875 7.8359375 C-44.63370501 -0.57219629 -37.34149748 -5.12452786 -27.23828125 -7.28125 C-16.88370873 -8.66009192 -8.49174374 -5.78982528 0 0 Z M-24.1875 5.3125 C-24.1875 11.2525 -24.1875 17.1925 -24.1875 23.3125 C-22.5375 23.3125 -20.8875 23.3125 -19.1875 23.3125 C-19.1875 17.3725 -19.1875 11.4325 -19.1875 5.3125 C-20.8375 5.3125 -22.4875 5.3125 -24.1875 5.3125 Z M-34.1875 9.3125 C-34.1875 22.1825 -34.1875 35.0525 -34.1875 48.3125 C-32.8675 48.3125 -31.5475 48.3125 -30.1875 48.3125 C-30.1875 42.3725 -30.1875 36.4325 -30.1875 30.3125 C-24.9075 30.6425 -19.6275 30.9725 -14.1875 31.3125 C-12.7025 39.2325 -12.7025 39.2325 -11.1875 47.3125 C-9.5375 47.6425 -7.8875 47.9725 -6.1875 48.3125 C-6.46949727 45.8735236 -6.76265615 43.43679067 -7.0625 41 C-7.14113281 40.30970703 -7.21976562 39.61941406 -7.30078125 38.90820312 C-7.74693847 35.35610529 -8.16730193 33.3427971 -10.1875 30.3125 C-11.1775 30.3125 -12.1675 30.3125 -13.1875 30.3125 C-12.40375 29.57 -11.62 28.8275 -10.8125 28.0625 C-7.27765857 24.35933279 -6.15779617 22.97591431 -6.25 17.8125 C-7.37194294 13.62391302 -8.5257953 12.526554 -12.1875 10.3125 C-14.36964568 9.53416466 -14.36964568 9.53416466 -16.1875 9.3125 C-15.77283302 12.94818353 -15.77283302 12.94818353 -13.625 15.75 C-12.1875 17.3125 -12.1875 17.3125 -11.75 20.3125 C-12.1875 23.3125 -12.1875 23.3125 -13.76171875 24.95703125 C-18.66058963 27.69440355 -24.71330997 27.05906528 -30.1875 27.3125 C-30.1875 22.6925 -30.1875 18.0725 -30.1875 13.3125 C-29.1975 13.3125 -28.2075 13.3125 -27.1875 13.3125 C-27.1875 11.9925 -27.1875 10.6725 -27.1875 9.3125 C-29.4975 9.3125 -31.8075 9.3125 -34.1875 9.3125 Z M-24.1875 34.3125 C-24.1875 38.9325 -24.1875 43.5525 -24.1875 48.3125 C-22.5375 48.3125 -20.8875 48.3125 -19.1875 48.3125 C-19.1875 43.6925 -19.1875 39.0725 -19.1875 34.3125 C-20.8375 34.3125 -22.4875 34.3125 -24.1875 34.3125 Z " fill="#F8BB00" transform="translate(322.1875,228.6875)"/>
<path d="M0 0 C-2.44096183 5.78651539 -4.76754645 9.44193159 -10 13 C-14.5699279 14.81631163 -19.0298681 15.49429673 -23.89208984 15.94213867 C-24.66627007 16.01910193 -25.44045029 16.0960652 -26.23809052 16.17536068 C-28.81177129 16.4295276 -31.38629576 16.67374417 -33.9609375 16.91796875 C-35.79783968 17.09736522 -37.63468133 17.27738233 -39.47146606 17.45797729 C-44.41394868 17.9421891 -49.35722024 18.41784858 -54.3006897 18.89186478 C-59.4307527 19.38518756 -64.560065 19.88619215 -69.68945312 20.38647461 C-78.04876168 21.20086239 -86.40849887 22.01070411 -94.76855469 22.81738281 C-105.29424491 23.83327555 -115.81879561 24.86048882 -126.34285355 25.89314079 C-132.94665487 26.54096224 -139.55063373 27.18697306 -146.15460968 27.83301163 C-147.72162822 27.986339 -149.28863971 28.13973846 -150.85564423 28.29320908 C-155.28471303 28.72694853 -159.71390843 29.15934175 -164.14333725 29.5893898 C-166.09786032 29.77947754 -168.05224366 29.97100027 -170.00662231 30.16256714 C-171.15750336 30.27400055 -172.3083844 30.38543396 -173.49414062 30.50024414 C-174.49207642 30.59745255 -175.49001221 30.69466095 -176.51818848 30.79481506 C-179 31 -179 31 -182 31 C-184.26171875 28.6640625 -184.26171875 28.6640625 -186.6875 25.625 C-187.89986328 24.12839844 -187.89986328 24.12839844 -189.13671875 22.6015625 C-191 20 -191 20 -191 18 C-166.98296279 15.64957273 -142.96560439 13.30245258 -118.94785881 10.95927429 C-107.79613964 9.87123138 -96.64452832 8.78210454 -85.49316406 7.69042969 C-75.77419612 6.73898359 -66.0550324 5.78956741 -56.33562768 4.84259319 C-51.18881336 4.34106071 -46.04210314 3.83850895 -40.89562607 3.33352661 C-36.05163013 2.85825667 -31.20737703 2.38570135 -26.36291313 1.91522598 C-24.58507084 1.74208613 -22.80732476 1.56795501 -21.02968407 1.39275742 C-18.60165558 1.15360998 -16.1733053 0.91803986 -13.74484253 0.68334961 C-13.04249414 0.61331254 -12.34014576 0.54327547 -11.61651409 0.47111607 C-7.72906329 0.09976171 -3.90456381 -0.06628175 0 0 Z " fill="#F8BB00" transform="translate(565,22)"/>
<path d="M0 0 C-1.95542124 6.22179484 -6.1891506 10.0999863 -11.87757206 13.16571999 C-19.77131132 16.26857628 -29.21009963 16.43410218 -37.59594727 17.23681641 C-39.22994728 17.3981884 -39.22994728 17.3981884 -40.8969574 17.56282043 C-44.4530671 17.9130018 -48.00971018 18.2573922 -51.56640625 18.6015625 C-54.05316696 18.84501263 -56.53989644 19.08878196 -59.02659607 19.33285522 C-64.21483837 19.84125334 -69.40333048 20.34698937 -74.59204102 20.85058594 C-80.5876104 21.43253619 -86.58281991 22.01804088 -92.57780796 22.60594618 C-98.36447455 23.17342135 -104.15131005 23.73915132 -109.93824577 24.30387497 C-112.39474236 24.5436151 -114.85121044 24.78364763 -117.30764961 25.02397537 C-120.72782195 25.35815973 -124.14817915 25.69037905 -127.56860352 26.02197266 C-129.09507004 26.17154671 -129.09507004 26.17154671 -130.65237427 26.32414246 C-131.5815416 26.41380783 -132.51070892 26.50347321 -133.46803284 26.59585571 C-134.6793958 26.71363593 -134.6793958 26.71363593 -135.91523075 26.83379555 C-138 27 -138 27 -141 27 C-142.75390625 25.171875 -142.75390625 25.171875 -144.5625 22.75 C-145.16191406 21.96109375 -145.76132812 21.1721875 -146.37890625 20.359375 C-147.80544837 18.28315466 -148.9041731 16.25893358 -150 14 C-131.62413724 12.1698536 -113.2478329 10.34420502 -94.87099457 8.52388 C-86.33793715 7.67852924 -77.80502938 6.83171856 -69.27246094 5.98144531 C-61.83372637 5.24017674 -54.39472329 4.50167349 -46.95538759 3.76646137 C-43.01794178 3.37723609 -39.08064227 2.98664657 -35.1436615 2.59274292 C-31.43406084 2.22163333 -27.7241107 1.85423711 -24.01386642 1.48962021 C-22.01127167 1.29186263 -20.00906091 1.09022834 -18.00686646 0.88845825 C-11.97262806 0.29895923 -6.06323951 -0.15566786 0 0 Z " fill="#F8BB00" transform="translate(538,43)"/>
<path d="M0 0 C14.77374661 0.73171519 29.4703014 2.23859258 44.1875 3.6875 C46.9031087 3.9532189 49.618793 4.21816166 52.33447266 4.4831543 C57.99611588 5.03604772 63.65755083 5.59103236 69.31884766 6.14746094 C75.84440851 6.788823 82.37022863 7.42748918 88.89620686 8.0645895 C95.88656275 8.74703203 102.8767555 9.43113345 109.86688614 10.11587906 C111.86593977 10.31161288 113.86502 10.50707327 115.86410522 10.70248413 C119.59440971 11.06746858 123.32456863 11.43390527 127.0546875 11.80078125 C128.15092941 11.90782379 129.24717133 12.01486633 130.37663269 12.12515259 C135.92984472 12.67296927 141.46677486 13.27710153 147 14 C147 14.66 147 15.32 147 16 C146.19175781 16.38671875 145.38351563 16.7734375 144.55078125 17.171875 C143.48214844 17.69265625 142.41351563 18.2134375 141.3125 18.75 C140.25675781 19.26046875 139.20101562 19.7709375 138.11328125 20.296875 C134.97850034 21.83328907 134.97850034 21.83328907 132.8034668 24.12353516 C129.08771523 26.61062621 126.27642968 26.23557092 122.03125 25.7265625 C121.22699081 25.64843323 120.42273163 25.57030396 119.59410095 25.48980713 C116.89350436 25.22239891 114.19730628 24.92365207 111.5 24.625 C109.58623197 24.42905978 107.67224303 24.23526716 105.75805664 24.04345703 C101.53041315 23.61698788 97.30427741 23.17805909 93.07861328 22.73242188 C86.04762536 21.99698315 79.0116141 21.31888963 71.97405624 20.6501503 C66.47395586 20.12707631 60.97439971 19.59827814 55.47476196 19.07036591 C54.11921413 18.94037387 52.76364371 18.81061729 51.40805054 18.68109894 C46.89506213 18.24982144 42.38293992 17.8102403 37.87109375 17.3671875 C36.73308823 17.25892639 35.5950827 17.15066528 34.42259216 17.03912354 C10.04185547 14.61950057 10.04185547 14.61950057 2.48828125 6.34375 C1.00846201 4.22527193 0 2.62583008 0 0 Z " fill="#F8BB00" transform="translate(19,22)"/>
<path d="M0 0 C-2.3136714 6.74820824 -5.94533192 10.64552257 -12.23245239 13.86135864 C-21.40253998 17.63417214 -32.65735408 17.56441281 -42.4453125 18.5078125 C-43.79045181 18.63931178 -45.13557476 18.77097842 -46.48068237 18.90280151 C-49.27546257 19.17578874 -52.07049208 19.44602077 -54.86572266 19.71435547 C-58.41734632 20.05563427 -61.96811438 20.40506783 -65.51872444 20.75671577 C-68.28787801 21.02983837 -71.05749662 21.29799392 -73.82726669 21.564785 C-75.76324714 21.75228569 -77.69878617 21.94432666 -79.63430786 22.13650513 C-99.52911123 24.02339116 -99.52911123 24.02339116 -104.04296875 20.8828125 C-104.75066406 19.97273438 -105.45835937 19.06265625 -106.1875 18.125 C-106.92355469 17.22007813 -107.65960938 16.31515625 -108.41796875 15.3828125 C-110 13 -110 13 -110 11 C-87.92829548 8.45357242 -65.82523645 6.2565081 -43.71411133 4.08551025 C-39.95880832 3.71627016 -36.20370464 3.34502422 -32.44859982 2.97377491 C-28.82086115 2.61529441 -25.1930258 2.25780078 -21.56515694 1.90064049 C-19.83910216 1.73063844 -18.11307219 1.56038435 -16.38706779 1.3898716 C-14.00284994 1.15453025 -11.61851076 0.92046066 -9.23413086 0.68676758 C-8.17242928 0.58162842 -8.17242928 0.58162842 -7.08927917 0.47436523 C-2.22888451 0 -2.22888451 0 0 0 Z " fill="#F8BB00" transform="translate(513,63)"/>
<path d="M0 0 C6.25472464 -0.08275755 12.33814185 0.20090354 18.55883789 0.82617188 C19.46723419 0.91395401 20.37563049 1.00173615 21.31155396 1.09217834 C24.2823365 1.38027507 27.2524813 1.67446094 30.22265625 1.96875 C32.29483927 2.17091007 34.36705975 2.37268649 36.4393158 2.57409668 C41.86967276 3.1029263 47.2995078 3.6369385 52.72924805 4.17205811 C58.27947737 4.71811725 63.83018805 5.25923681 69.38085938 5.80078125 C80.25438104 6.8623734 91.12735735 7.92944522 102 9 C99.32246643 14.51890859 96.14845595 18.55903079 91 22 C88.24804688 22.29125977 88.24804688 22.29125977 85.03125 21.94140625 C84.40636185 21.88068939 83.78147369 21.81997253 83.13764954 21.75741577 C81.64756266 21.61055431 80.15849608 21.45314633 78.6703186 21.28805542 C75.58706471 20.95545541 72.50105708 20.66979916 69.4128418 20.38696289 C63.6759291 19.85754041 57.94219353 19.30142565 52.20967388 18.72641087 C48.18129861 18.32239457 44.15214979 17.92807643 40.12206554 17.54149055 C36.86567575 17.22635141 33.61068462 16.8973212 30.35546875 16.5703125 C28.56764229 16.40137985 28.56764229 16.40137985 26.74369812 16.22903442 C8.1182906 14.30948718 8.1182906 14.30948718 2 8 C-0.00796384 4.94024557 0 3.85514114 0 0 Z " fill="#F8BB00" transform="translate(42,41)"/>
<path d="M0 0 C10.14745174 1.57323744 20.18143911 3.6183083 30.234375 5.6953125 C31.96596336 6.05137284 33.6975925 6.4072349 35.42926025 6.76290894 C39.94718458 7.6914097 44.4645564 8.62257103 48.98181152 9.55432129 C53.60733001 10.50789976 58.23337554 11.45891434 62.859375 12.41015625 C71.90676243 14.27095375 80.95356721 16.1345674 90 18 C91.12915864 23.11268224 90.44095424 25.99904117 89 31 C75.29580659 29.00844886 61.73061141 26.35843615 48.15009212 23.67049026 C44.12523222 22.87391312 40.09894278 22.08751732 36.06762695 21.32421875 C32.13182727 20.57881304 28.20151585 19.8091208 24.27386665 19.02193451 C22.7856322 18.72792789 21.29567661 18.44249329 19.8040905 18.16599274 C17.72459491 17.77877552 15.65362777 17.36060016 13.58178711 16.93457031 C12.40410263 16.7052179 11.22641815 16.47586548 10.01304626 16.23956299 C6.10484862 14.63173598 4.99040901 12.65666345 3 9 C1.79293658 6.05440494 0.92244635 3.04407296 0 0 Z " fill="#F8BB00" transform="translate(290,141)"/>
<path d="M0 0 C4.33304076 0.64465202 7.86672065 2.18925122 11.8125 4.0625 C12.97394531 4.61035156 14.13539063 5.15820312 15.33203125 5.72265625 C16.21246094 6.14417969 17.09289062 6.56570312 18 7 C17.54166667 8.375 17.08333333 9.75 16.625 11.125 C16.35429687 11.95386719 16.08359375 12.78273437 15.8046875 13.63671875 C15.193877 15.43060396 14.49200619 17.19378545 13.75 18.9375 C12.30249483 24.84814611 12.99888678 30.71356359 15.9375 36.0625 C17.6790963 39.03747662 17.6790963 39.03747662 20 40 C20 40.66 20 41.32 20 42 C18.390625 43.25390625 18.390625 43.25390625 16.25 44.5625 C15.55390625 44.99691406 14.8578125 45.43132812 14.140625 45.87890625 C7.22529639 49.50062032 0.42250263 48.2904357 -6.75 46.125 C-10.32760071 44.98050688 -13.69080827 43.78310817 -17 42 C-16.42117813 36.99018015 -14.77858354 32.82310403 -12.65625 28.30078125 C-12.16251892 27.22548409 -12.16251892 27.22548409 -11.65881348 26.12846375 C-10.61263496 23.85328586 -9.55672486 21.58279603 -8.5 19.3125 C-7.44527122 17.03062098 -6.39257344 14.74782184 -5.34118652 12.46440125 C-4.68804661 11.04762278 -4.0326147 9.63189815 -3.37463379 8.21736145 C-2.115721 5.49999743 -0.94803167 2.844095 0 0 Z " fill="#F8BB00" transform="translate(172,211)"/>
<path d="M0 0 C5.94 13.2 11.88 26.4 18 40 C15.1554804 42.8445196 13.73941088 43.72977149 10.125 45.125 C9.28195312 45.45757812 8.43890625 45.79015625 7.5703125 46.1328125 C-0.02518863 48.69542838 -6.79485919 48.80278218 -14.23828125 45.94921875 C-16.20283239 44.89071337 -17.50414917 43.6431346 -19 42 C-18.02992271 40.02051797 -17.04554936 38.0776334 -15.9296875 36.17578125 C-13.04338186 31.07664129 -11.904613 26.82094085 -13 21 C-14.15763531 17.75141095 -15.46579738 14.63689069 -16.90625 11.50390625 C-18 9 -18 9 -18 7 C-15.56568361 5.82625827 -13.12795818 4.66084237 -10.6875 3.5 C-9.99720703 3.16613281 -9.30691406 2.83226562 -8.59570312 2.48828125 C-3.33984375 0 -3.33984375 0 0 0 Z " fill="#F8BB00" transform="translate(429,211)"/>
<path d="M0 0 C23.64361436 3.67835364 47.26334929 7.49753393 70.875 11.375 C71.57189816 11.48944206 72.26879631 11.60388412 72.98681259 11.72179413 C81.65818879 13.14595639 90.32924431 14.57206443 99 16 C93.5836206 22.66180024 93.5836206 22.66180024 89.875 24.3125 C89.21242188 24.61800781 88.54984375 24.92351562 87.8671875 25.23828125 C80.38482296 28.2907103 73.72278698 26.70300923 66.16015625 24.875 C65.21221191 24.65221878 64.26426758 24.42943756 63.28759766 24.1999054 C60.21065832 23.47440344 57.13658094 22.73751088 54.0625 22 C51.94794449 21.4984814 49.83327906 20.99742603 47.71850586 20.49682617 C30.77672977 16.47439791 13.87102258 12.30937449 -3 8 C-1.125 2.25 -1.125 2.25 0 0 Z " fill="#F8BB00" transform="translate(411,110)"/>
<path d="M0 0 C4.16625 -0.0825 8.3325 -0.165 12.625 -0.25 C13.92775879 -0.28641602 15.23051758 -0.32283203 16.57275391 -0.36035156 C27.29589231 -0.46328307 27.29589231 -0.46328307 32 4 C34.32536063 7.48804095 34.33457898 8.90140754 34 13 C32.88791835 15.99406599 31.35170044 17.86209051 29 20 C29.46019531 20.32613281 29.92039063 20.65226562 30.39453125 20.98828125 C32.81154971 24.01690535 33.09166984 27.45949163 33.6875 31.1875 C33.81705078 31.93708984 33.94660156 32.68667969 34.08007812 33.45898438 C34.39740538 35.30418359 34.70013291 37.151883 35 39 C30.71 39 26.42 39 22 39 C21.34 34.38 20.68 29.76 20 25 C17.69 25 15.38 25 13 25 C12.67 29.62 12.34 34.24 12 39 C8.04 39 4.08 39 0 39 C0 26.13 0 13.26 0 0 Z M12 8 C12 10.64 12 13.28 12 16 C16.0100934 16.17864631 16.0100934 16.17864631 20 16 C20.66 15.34 21.32 14.68 22 14 C21.83492354 11.42459787 21.83492354 11.42459787 21 9 C18.04335481 7.5216774 15.25770263 7.93967217 12 8 Z " fill="#F8BB00" transform="translate(108,347)"/>
<path d="M0 0 C4.62031311 2.7048083 7.8502189 6.2381567 9.5625 11.375 C10.69104183 27.13758426 10.69104183 27.13758426 5.5625 33.375 C0.87389078 37.94022477 -3.80837045 39.45085312 -10.25 39.75 C-16.29519925 39.59522833 -21.80338508 38.141135 -26.07421875 33.65625 C-31.06196111 26.91065001 -31.1282088 20.49082844 -30.4375 12.375 C-28.88475811 6.99103628 -26.2049794 3.39827962 -21.4375 0.375 C-14.78636548 -2.7469611 -6.75662676 -3.08287153 0 0 Z M-16.375 9.1875 C-18.68283321 13.93892131 -18.95961706 18.18037768 -18.4375 23.375 C-16.91547806 27.18339283 -16.91547806 27.18339283 -14.4375 30.375 C-9.17016351 30.9219623 -9.17016351 30.9219623 -4.5 29.0625 C-1.52774245 24.34185566 -1.97439497 18.74387867 -2.4375 13.375 C-3.60994304 10.82621078 -4.50047378 9.31202622 -6.4375 7.375 C-11.92337789 6.66537145 -11.92337789 6.66537145 -16.375 9.1875 Z " fill="#F8BB00" transform="translate(93.4375,347.625)"/>
<path d="M0 0 C5.05159042 3.00364836 7.90964463 6.59448535 9.9375 12.125 C11.14824171 18.14411591 10.43279838 23.94732558 8.375 29.6875 C4.8756961 34.87612302 0.68700036 38.05402933 -5.4375 39.375 C-13.03343389 40.16712718 -19.2342015 38.9376388 -25.25 34.125 C-30.10406547 28.02274627 -31.00087047 23.00888645 -30.7890625 15.31640625 C-30.11499688 9.67672394 -28.03203951 5.92865388 -24 2 C-16.81864915 -2.55402737 -7.88364842 -3.59710194 0 0 Z M-15.4375 8.375 C-18.78819848 13.1121944 -19.19932778 17.76153215 -18.4375 23.375 C-16.88677204 27.71196609 -16.88677204 27.71196609 -13.4375 30.375 C-10.02178147 30.87531206 -10.02178147 30.87531206 -6.4375 30.375 C-3.63735373 27.68904409 -2.53499055 26.04999811 -1.9765625 22.18359375 C-2.00492187 21.07113281 -2.03328125 19.95867187 -2.0625 18.8125 C-2.07539063 17.69746094 -2.08828125 16.58242188 -2.1015625 15.43359375 C-2.42295297 12.50744559 -2.78715543 10.78618139 -4.4375 8.375 C-8.69125693 6.2953855 -11.37868405 5.74225452 -15.4375 8.375 Z " fill="#F8BB00" transform="translate(310.4375,347.625)"/>
<path d="M0 0 C4.02505878 2.99448817 6.04327952 6.53475388 7.6171875 11.203125 C8.45927414 18.85044669 8.38325454 25.89509509 3.6171875 32.203125 C-0.99783582 36.94287868 -6.34933337 38.25945887 -12.8203125 38.515625 C-18.05335093 38.36407193 -22.94741629 37.40981649 -26.921875 33.80859375 C-31.96268779 27.98660237 -33.74609201 22.36169407 -33.20703125 14.70703125 C-32.26610819 8.46272368 -30.26150309 4.27813338 -25.3828125 0.203125 C-17.77679776 -4.51260414 -7.73468946 -4.55736889 0 0 Z M-18.3203125 7.515625 C-21.29257005 12.23626934 -20.84591753 17.83424633 -20.3828125 23.203125 C-19.21036946 25.75191422 -18.31983872 27.26609878 -16.3828125 29.203125 C-13.52594179 29.4335178 -11.17885472 29.61943712 -8.3828125 29.203125 C-5.65254494 26.64900374 -4.55032067 23.89431329 -4.1796875 20.15234375 C-4.07366841 15.03692277 -4.59332606 11.6663033 -7.3828125 7.203125 C-8.6052218 5.76067749 -8.6052218 5.76067749 -12.2578125 5.953125 C-15.50497159 5.98245163 -15.50497159 5.98245163 -18.3203125 7.515625 Z " fill="#F8BB00" transform="translate(217.3828125,348.796875)"/>
<path d="M0 0 C0.66 0 1.32 0 2 0 C2 0.66 2 1.32 2 2 C2.57927246 2.27295898 3.15854492 2.54591797 3.75537109 2.82714844 C5.97897717 3.98901526 7.89621948 5.2779642 9.9140625 6.765625 C10.6661499 7.31903564 11.4182373 7.87244629 12.19311523 8.44262695 C12.99563721 9.03906006 13.79815918 9.63549316 14.625 10.25 C15.46168213 10.8689917 16.29836426 11.4879834 17.16040039 12.12573242 C23.73954655 17.01424487 30.22599129 22.01538027 36.6796875 27.06787109 C42.72318044 31.79914765 48.83383503 36.42978361 55 41 C53.76076086 44.18741239 52.42490008 47.26436318 50.875 50.3125 C50.52179688 51.00988281 50.16859375 51.70726562 49.8046875 52.42578125 C49.53914063 52.94527344 49.27359375 53.46476562 49 54 C45.5745144 52.39913982 42.51305714 50.42321099 39.37109375 48.32421875 C38.82818695 47.96288345 38.28528015 47.60154816 37.72592163 47.22926331 C34.7412474 45.23998449 31.76712967 43.2354448 28.79760742 41.22363281 C27.57623081 40.39745862 26.35463238 39.57161226 25.1328125 38.74609375 C24.52728043 38.33670563 23.92174835 37.9273175 23.29786682 37.50552368 C19.59452379 35.01904458 15.83811671 32.67327251 11.9921875 30.41015625 C-0.35163989 22.99397307 -0.35163989 22.99397307 -2.19140625 17.3359375 C-2.24948263 13.65776672 -1.83952056 10.57242791 -1 7 C-0.82253768 5.54294097 -0.65304623 4.08482559 -0.5 2.625 C-0.335 1.75875 -0.17 0.8925 0 0 Z " fill="#F8BB00" transform="translate(243,136)"/>
<path d="M0 0 C4.00125 -0.0825 8.0025 -0.165 12.125 -0.25 C13.37555176 -0.28641602 14.62610352 -0.32283203 15.91455078 -0.36035156 C22.23200939 -0.4234549 26.28877859 -0.40983014 31 4 C33.51250583 7.76875875 33.53016086 9.53150134 33 14 C31.54006686 16.32978877 29.93880985 18.0127199 28 20 C28.47179687 20.40734375 28.94359375 20.8146875 29.4296875 21.234375 C31.250757 23.28194568 31.61188798 24.58181752 32.125 27.25 C32.2796875 28.03761719 32.434375 28.82523437 32.59375 29.63671875 C33.12937433 32.75261029 33.59962337 35.86371642 34 39 C29.71 39 25.42 39 21 39 C20.34 34.38 19.68 29.76 19 25 C16.36 24.67 13.72 24.34 11 24 C11 28.95 11 33.9 11 39 C7.37 39 3.74 39 0 39 C0 26.13 0 13.26 0 0 Z M11 8 C11 10.64 11 13.28 11 16 C15.0100934 16.17864631 15.0100934 16.17864631 19 16 C19.66 15.34 20.32 14.68 21 14 C20.83492354 11.42459787 20.83492354 11.42459787 20 9 C17.04335481 7.5216774 14.25770263 7.93967217 11 8 Z " fill="#F8BB00" transform="translate(326,347)"/>
<path d="M0 0 C0.94625244 0.21116455 1.89250488 0.4223291 2.86743164 0.63989258 C12.76054257 2.84435936 22.65860114 5.02587357 32.55859375 7.19921875 C35.83878382 7.91985937 39.11896445 8.64054291 42.39912987 9.3612957 C45.78422791 10.10500016 49.16945826 10.84809378 52.55493164 11.59008789 C55.23929697 12.17845442 57.92347371 12.76766715 60.60743713 13.35786438 C63.11345555 13.90892639 65.61974289 14.45876714 68.12632751 15.00724792 C69.24922684 15.2545314 70.37212616 15.50181488 71.52905273 15.7565918 C73.00981544 16.08157906 73.00981544 16.08157906 74.52049255 16.41313171 C77 17 77 17 80 18 C79.67 21.96 79.34 25.92 79 30 C70.81811235 29.3685754 63.0111607 27.86015895 55.00390625 26.09375 C53.68026666 25.80567036 52.35652918 25.51804021 51.03269958 25.23083496 C48.27959148 24.63237747 45.52730386 24.03033194 42.77563477 23.42529297 C39.25062909 22.65025251 35.72426717 21.88161519 32.19735813 21.11528778 C28.81989391 20.3811397 25.44312881 19.64380043 22.06640625 18.90625 C20.80083389 18.63018921 19.53526154 18.35412842 18.2313385 18.06970215 C17.06259689 17.8127356 15.89385529 17.55576904 14.68969727 17.29101562 C13.66062759 17.06530884 12.63155792 16.83960205 11.57130432 16.60705566 C9 16 9 16 6 15 C4.39453125 12.12890625 4.39453125 12.12890625 2.8125 8.5625 C2.28269531 7.38816406 1.75289063 6.21382812 1.20703125 5.00390625 C0 2 0 2 0 0 Z " fill="#F8BB00" transform="translate(298,158)"/>
<path d="M0 0 C1.5234375 1.16796875 1.5234375 1.16796875 3.5234375 4.16796875 C3.5234375 6.14796875 3.5234375 8.12796875 3.5234375 10.16796875 C-0.4365625 10.16796875 -4.3965625 10.16796875 -8.4765625 10.16796875 C-8.8065625 9.17796875 -9.1365625 8.18796875 -9.4765625 7.16796875 C-11.39322917 6.33463542 -11.39322917 6.33463542 -13.4765625 6.16796875 C-14.4665625 6.66296875 -14.4665625 6.66296875 -15.4765625 7.16796875 C-15.4765625 8.15796875 -15.4765625 9.14796875 -15.4765625 10.16796875 C-14.45175781 10.47089844 -13.42695313 10.77382813 -12.37109375 11.0859375 C-11.01016222 11.50829556 -9.64949897 11.93151878 -8.2890625 12.35546875 C-7.61552734 12.55205078 -6.94199219 12.74863281 -6.24804688 12.95117188 C-1.53927617 14.44419673 1.29244646 16.26765753 4.5234375 20.16796875 C5.86017887 24.01110018 5.6105542 25.87074705 4.4609375 29.79296875 C1.8991796 34.25538574 -0.90471832 36.33385712 -5.7890625 37.91796875 C-12.74003791 38.56457111 -19.28855201 38.91150557 -25.4765625 35.16796875 C-29.02906105 31.08259542 -29.4765625 29.71203112 -29.4765625 24.16796875 C-25.5165625 24.16796875 -21.5565625 24.16796875 -17.4765625 24.16796875 C-16.8165625 25.48796875 -16.1565625 26.80796875 -15.4765625 28.16796875 C-13.1665625 28.16796875 -10.8565625 28.16796875 -8.4765625 28.16796875 C-8.4765625 26.84796875 -8.4765625 25.52796875 -8.4765625 24.16796875 C-10.01376953 23.71357422 -10.01376953 23.71357422 -11.58203125 23.25 C-12.94296278 22.82764194 -14.30362603 22.40441872 -15.6640625 21.98046875 C-16.33759766 21.78388672 -17.01113281 21.58730469 -17.70507812 21.38476562 C-22.41078193 19.8927132 -25.26619025 18.08438152 -28.4765625 14.16796875 C-29.77821102 10.03332052 -29.85634484 7.27518447 -27.9765625 3.41796875 C-26.05051033 0.52238356 -24.0303131 -1.23490739 -20.66015625 -2.39453125 C-13.32274515 -3.86463866 -6.60418749 -3.63648298 0 0 Z " fill="#F8BB00" transform="translate(428.4765625,348.83203125)"/>
<path d="M0 0 C1.93166016 0.01740234 1.93166016 0.01740234 3.90234375 0.03515625 C5.19269531 0.04417969 6.48304688 0.05320312 7.8125 0.0625 C8.81152344 0.07410156 9.81054688 0.08570313 10.83984375 0.09765625 C12.33359871 3.75959115 13.82690399 7.42170909 15.31982422 11.08398438 C16.07236312 12.92978048 16.82524004 14.77543877 17.578125 16.62109375 C18.54635569 18.99648638 19.51317782 21.37245369 20.47851562 23.74902344 C21.34546594 25.88157195 22.21615633 28.01260658 23.09179688 30.14160156 C23.45724609 31.03717773 23.82269531 31.93275391 24.19921875 32.85546875 C24.6782666 34.02166748 24.6782666 34.02166748 25.16699219 35.21142578 C25.83984375 37.09765625 25.83984375 37.09765625 25.83984375 39.09765625 C21.54984375 39.09765625 17.25984375 39.09765625 12.83984375 39.09765625 C11.84984375 36.78765625 10.85984375 34.47765625 9.83984375 32.09765625 C5.21984375 32.09765625 0.59984375 32.09765625 -4.16015625 32.09765625 C-4.82015625 34.40765625 -5.48015625 36.71765625 -6.16015625 39.09765625 C-10.12015625 39.09765625 -14.08015625 39.09765625 -18.16015625 39.09765625 C-17.26082942 34.60102208 -15.9379163 30.65251623 -14.25390625 26.42578125 C-13.96914429 25.70275818 -13.68438232 24.97973511 -13.39099121 24.23480225 C-12.79115299 22.71449711 -12.18926586 21.19499895 -11.58544922 19.67626953 C-10.65850594 17.34350303 -9.73894047 15.00792679 -8.8203125 12.671875 C-8.23610964 11.19383937 -7.65148892 9.71596882 -7.06640625 8.23828125 C-6.79034546 7.53729309 -6.51428467 6.83630493 -6.2298584 6.11407471 C-3.83933115 0.11864435 -3.83933115 0.11864435 0 0 Z M2.83984375 10.09765625 C2.16926488 11.88786235 1.50349685 13.67987114 0.83984375 15.47265625 C0.46859375 16.47039062 0.09734375 17.468125 -0.28515625 18.49609375 C-1.26641902 20.95613686 -1.26641902 20.95613686 -1.16015625 23.09765625 C1.47984375 23.09765625 4.11984375 23.09765625 6.83984375 23.09765625 C6.55502007 21.67959794 6.26166231 20.26325246 5.96484375 18.84765625 C5.80242187 18.05875 5.64 17.26984375 5.47265625 16.45703125 C4.848343 14.12934481 3.99145833 12.20733673 2.83984375 10.09765625 Z " fill="#F8BB00" transform="translate(487.16015625,346.90234375)"/>
<path d="M0 0 C10.23 0 20.46 0 31 0 C31 2.64 31 5.28 31 8 C24.73 8 18.46 8 12 8 C12 10.31 12 12.62 12 15 C17.61 15 23.22 15 29 15 C29 17.97 29 20.94 29 24 C23.72 24 18.44 24 13 24 C13 25.98 13 27.96 13 30 C18.94 30 24.88 30 31 30 C31 32.97 31 35.94 31 39 C20.77 39 10.54 39 0 39 C0 26.13 0 13.26 0 0 Z " fill="#F8BB00" transform="translate(364,347)"/>
<path d="M0 0 C9.32321268 2.22397812 18.50730689 4.8529982 27.6875 7.59765625 C29.16288609 8.03710676 30.63830999 8.47643032 32.11376953 8.91563416 C35.18006195 9.82909225 38.24574964 10.74454594 41.31103516 11.66137695 C45.23474401 12.83471061 49.16016556 14.00219834 53.08607483 15.16814518 C56.12202068 16.07061586 59.15693495 16.97651607 62.19155884 17.88342094 C63.63927149 18.31554866 65.08732772 18.74652715 66.53573608 19.17631721 C68.55354794 19.77554401 70.56989452 20.37947202 72.5859375 20.98461914 C73.7311084 21.32642715 74.8762793 21.66823517 76.05615234 22.020401 C78.5285657 22.84312484 80.71970399 23.75364852 83 25 C77.35532477 29.96047217 70.6795227 33.40362862 63 33 C52.41442722 30.54960776 42.24141357 26.11317425 32.16137695 22.13696289 C29.44079396 21.06379934 26.71774094 19.99712032 23.99414062 18.93164062 C14.95312636 15.3878349 5.93756045 11.79866348 -3 8 C-2.690625 7.236875 -2.38125 6.47375 -2.0625 5.6875 C-1.32106407 3.81210323 -0.63771783 1.91315348 0 0 Z " fill="#F8BB00" transform="translate(404,121)"/>
<path d="M0 0 C9.9 0 19.8 0 30 0 C30 2.64 30 5.28 30 8 C24.06 8 18.12 8 12 8 C12 10.31 12 12.62 12 15 C17.61 15 23.22 15 29 15 C29 17.97 29 20.94 29 24 C23.72 24 18.44 24 13 24 C12.67 25.98 12.34 27.96 12 30 C17.94 30 23.88 30 30 30 C30 32.97 30 35.94 30 39 C20.1 39 10.2 39 0 39 C0 26.13 0 13.26 0 0 Z " fill="#F8BB00" transform="translate(549,347)"/>
<path d="M0 0 C4.20809884 -0.11656783 8.41577996 -0.18737611 12.625 -0.25 C14.40970703 -0.30027344 14.40970703 -0.30027344 16.23046875 -0.3515625 C27.24920872 -0.47467691 27.24920872 -0.47467691 32 4 C35.10730351 8.31013067 35.42256625 11.77825796 34.6484375 16.87890625 C33.62526902 20.22577665 31.73154263 21.91882466 29 24 C23.57364835 25.80878388 17.66885438 25.05200784 12 25 C12 29.62 12 34.24 12 39 C3.50390625 39.09765625 3.50390625 39.09765625 1 39 C0 38 0 38 -0.11352539 34.39819336 C-0.11336625 32.79540144 -0.10767063 31.1926044 -0.09765625 29.58984375 C-0.0962413 28.74780899 -0.09482635 27.90577423 -0.09336853 27.03822327 C-0.08775263 24.33794665 -0.07519748 21.63775172 -0.0625 18.9375 C-0.05748705 17.11132932 -0.05292379 15.28515734 -0.04882812 13.45898438 C-0.03777804 8.97262458 -0.02050279 4.48632616 0 0 Z M12 8 C12 10.97 12 13.94 12 17 C16.0100934 17.17864631 16.0100934 17.17864631 20 17 C22.23845015 15.17084359 22.23845015 15.17084359 22.3125 12.5 C22.209375 11.675 22.10625 10.85 22 10 C18.3558226 7.5705484 16.28758728 7.83820425 12 8 Z " fill="#F8BB00" transform="translate(147,347)"/>
<path d="M0 0 C3.1417085 1.90492732 4.73680334 3.93787631 6.7265625 7.046875 C6.7265625 8.696875 6.7265625 10.346875 6.7265625 12.046875 C2.7665625 12.046875 -1.1934375 12.046875 -5.2734375 12.046875 C-5.9334375 10.726875 -6.5934375 9.406875 -7.2734375 8.046875 C-8.5521875 7.985 -9.8309375 7.923125 -11.1484375 7.859375 C-11.86773437 7.82457031 -12.58703125 7.78976562 -13.328125 7.75390625 C-13.97007813 7.85058594 -14.61203125 7.94726562 -15.2734375 8.046875 C-17.68907796 11.67033569 -17.57125419 14.36291482 -17.5234375 18.546875 C-17.53117187 19.22363281 -17.53890625 19.90039062 -17.546875 20.59765625 C-17.53228561 24.29606757 -17.37608192 25.89290837 -15.2734375 29.046875 C-13.06618677 29.41050318 -13.06618677 29.41050318 -10.6484375 29.234375 C-9.83117187 29.20730469 -9.01390625 29.18023437 -8.171875 29.15234375 C-7.23214844 29.10013672 -7.23214844 29.10013672 -6.2734375 29.046875 C-5.9434375 27.726875 -5.6134375 26.406875 -5.2734375 25.046875 C-1.3134375 25.046875 2.6465625 25.046875 6.7265625 25.046875 C6.27300771 29.922589 5.35584364 32.68978994 1.7265625 36.046875 C-5.3654475 39.59998622 -12.9611816 40.30547536 -20.5234375 37.921875 C-24.60877976 36.18031475 -26.82988528 33.78407251 -29.2734375 30.046875 C-32.30716836 22.39031617 -32.1617069 14.7384003 -29.3203125 7.05859375 C-23.88202845 -3.39184016 -9.77685951 -4.26480291 0 0 Z " fill="#F8BB00" transform="translate(52.2734375,347.953125)"/>
<path d="M0 0 C13.31925724 2.78498915 26.62469019 5.63077204 39.921875 8.51928711 C43.05173285 9.19873039 46.18211379 9.8757301 49.3125 10.55273438 C51.31253228 10.98683047 53.3125335 11.42106968 55.3125 11.85546875 C56.24360596 12.05649704 57.17471191 12.25752533 58.1340332 12.46464539 C58.99343506 12.65186661 59.85283691 12.83908783 60.73828125 13.03198242 C61.49149658 13.19534592 62.24471191 13.35870941 63.02075195 13.52702332 C65 14 65 14 68 15 C67.67 19.29 67.34 23.58 67 28 C56.09811118 26.35389944 45.37228714 23.99078786 34.60620117 21.6315918 C31.41466064 20.93249713 28.22206507 20.23838595 25.02929688 19.54492188 C22.9973326 19.10185237 20.96542929 18.65850322 18.93359375 18.21484375 C17.98052841 18.00754135 17.02746307 17.80023895 16.04551697 17.58665466 C14.72252342 17.29613976 14.72252342 17.29613976 13.37280273 16.99975586 C12.21130959 16.745662 12.21130959 16.745662 11.02635193 16.48643494 C6.20130441 15.32816048 6.20130441 15.32816048 4.39453125 12.3828125 C3.87246094 11.30773437 3.35039062 10.23265625 2.8125 9.125 C2.28269531 8.05507812 1.75289063 6.98515625 1.20703125 5.8828125 C0 3 0 3 0 0 Z " fill="#F8BB00" transform="translate(307,177)"/>
<path d="M0 0 C18.75902651 3.61971737 37.38311468 7.71835765 56 12 C56 12.66 56 13.32 56 14 C52.39353495 15.47676354 48.78631737 16.95167336 45.1784668 18.42504883 C43.36534542 19.16590688 41.55278134 19.90812836 39.74023438 20.65039062 C33.77080532 23.08722605 27.79267164 25.50188215 21.79296875 27.86328125 C20.75035889 28.27489502 19.70774902 28.68650879 18.63354492 29.1105957 C16 30 16 30 13 30 C11.14373245 26.05125409 9.2924537 22.10022073 7.44580078 18.14697266 C6.81664084 16.8019281 6.18611234 15.45752282 5.55419922 14.11376953 C4.64712342 12.18427549 3.74496389 10.25255007 2.84375 8.3203125 C2.02680664 6.57645264 2.02680664 6.57645264 1.19335938 4.79736328 C0 2 0 2 0 0 Z " fill="#F8BB00" transform="translate(316,196)"/>
<path d="M0 0 C22.03718019 1.60984301 44.01464658 3.80959498 66 6 C65.97679687 6.59167969 65.95359375 7.18335937 65.9296875 7.79296875 C65.82588536 12.33801959 65.86291643 15.85940059 68 20 C59.66106444 19.39756328 51.32926641 18.7237984 43 18 C41.82034668 17.89816406 40.64069336 17.79632813 39.42529297 17.69140625 C35.96820588 17.38091527 32.51562317 17.03911893 29.0625 16.6875 C28.00498535 16.59428467 26.9474707 16.50106934 25.85791016 16.4050293 C17.39040484 15.49342357 10.58248023 12.98540019 4 7.5 C2.02170316 5.02712895 1.0970208 2.93844858 0 0 Z " fill="#F8BB00" transform="translate(63,61)"/>
<path d="M0 0 C4.17240931 0.57087739 7.69421441 1.53110827 11.55883789 3.19311523 C13.15563133 3.87403481 13.15563133 3.87403481 14.78468323 4.56871033 C15.91921432 5.06037186 17.05374542 5.55203339 18.22265625 6.05859375 C20.02286238 6.82918085 21.82306851 7.59976794 23.6232748 8.37035465 C26.13490039 9.44752072 28.64383751 10.53087782 31.15289307 11.61401367 C34.31942806 12.97952939 37.48886222 14.33827806 40.65820312 15.69726562 C44.22458336 17.22658219 47.79045977 18.75702753 51.35426331 20.29234314 C52.41564011 20.74944168 53.47701691 21.20654022 54.57055664 21.67749023 C55.50066055 22.07862534 56.43076447 22.47976044 57.38905334 22.89305115 C59.91324936 23.9632208 62.45066328 24.99138077 65 26 C64 29 64 29 62.03125 30.16796875 C61.1959375 30.50441406 60.360625 30.84085938 59.5 31.1875 C58.27796875 31.70376953 58.27796875 31.70376953 57.03125 32.23046875 C48.24520845 34.46094579 42.21136814 32.28452184 34.3125 28.25 C33.32733398 27.76281494 32.34216797 27.27562988 31.32714844 26.77368164 C6.71929052 14.47952701 6.71929052 14.47952701 -3 8 C-2.37240135 5.07120629 -1.41377341 2.63904371 0 0 Z " fill="#F8BB00" transform="translate(397,133)"/>
<path d="M0 0 C2.10546875 2.1171875 2.10546875 2.1171875 4.1875 4.875 C7.3253071 8.902633 10.52955282 12.75429185 14 16.5 C18.10270302 20.9578056 21.95302974 25.56215839 25.75 30.28125 C28.81343204 33.98289705 32.06487058 37.4966566 35.34765625 41.00390625 C37 43 37 43 37 45 C31.88634055 46.42158385 27.32705057 47.33594013 22 47 C17.96253617 44.04389475 15.69978436 40.15828856 13 36 C11.53440733 34.30299796 10.03463336 32.63483279 8.5 31 C4.6110918 26.73365877 0.97096362 22.30879617 -2.65234375 17.81640625 C-5.9654764 13.84174961 -9.48423498 10.07846656 -13.03125 6.3125 C-15 4 -15 4 -16 1 C-14.27327966 0.63409254 -12.54346345 0.28277805 -10.8125 -0.0625 C-9.36810547 -0.35833984 -9.36810547 -0.35833984 -7.89453125 -0.66015625 C-4.81804307 -1.02136336 -2.91509741 -1.04924516 0 0 Z " fill="#F8BB00" transform="translate(369,42)"/>
<path d="M0 0 C6.27 0 12.54 0 19 0 C19 7.29017963 18.9491477 7.93220883 14.5 12.9375 C13.6646875 13.89527344 12.829375 14.85304688 11.96875 15.83984375 C11.3190625 16.55269531 10.669375 17.26554687 10 18 C11.17369141 18.07347656 11.17369141 18.07347656 12.37109375 18.1484375 C13.38300781 18.22320312 14.39492188 18.29796875 15.4375 18.375 C16.44683594 18.44460938 17.45617187 18.51421875 18.49609375 18.5859375 C19.32238281 18.72257812 20.14867187 18.85921875 21 19 C21.33 19.66 21.66 20.32 22 21 C24.64 14.07 27.28 7.14 30 0 C33.3 0 36.6 0 40 0 C41.50855339 3.6006459 43.00535824 7.20605959 44.5 10.8125 C44.92925781 11.83666016 45.35851562 12.86082031 45.80078125 13.91601562 C46.20683594 14.89892578 46.61289062 15.88183594 47.03125 16.89453125 C47.40830078 17.80050049 47.78535156 18.70646973 48.17382812 19.63989258 C49 22 49 22 49 25 C46.36 25 43.72 25 41 25 C40.76539063 24.35546875 40.53078125 23.7109375 40.2890625 23.046875 C39.18838927 20.7922092 39.18838927 20.7922092 36.8359375 20.390625 C35.61777344 20.32101562 35.61777344 20.32101562 34.375 20.25 C33.55773437 20.19328125 32.74046875 20.1365625 31.8984375 20.078125 C31.27195312 20.05234375 30.64546875 20.0265625 30 20 C29.67 21.65 29.34 23.3 29 25 C19.1 25 9.2 25 -1 25 C-1 18.25 -1 18.25 1.40625 15.7890625 C1.90253906 15.26699219 2.39882813 14.74492187 2.91015625 14.20703125 C3.43480469 13.68496094 3.95945312 13.16289062 4.5 12.625 C5.02464844 12.07972656 5.54929687 11.53445313 6.08984375 10.97265625 C7.38001995 9.63556455 8.68828775 8.31597106 10 7 C6.7 6.67 3.4 6.34 0 6 C0 4.02 0 2.04 0 0 Z M34 8 C33.34 10.31 32.68 12.62 32 15 C33.65 15 35.3 15 37 15 C36.65772428 12.02934491 36.65772428 12.02934491 36 9 C35.34 8.67 34.68 8.34 34 8 Z " fill="#F8BB00" transform="translate(269,404)"/>
<path d="M0 0 C2.26171875 2.1171875 2.26171875 2.1171875 4.6875 4.875 C5.34214233 5.61375366 5.34214233 5.61375366 6.01000977 6.36743164 C9.67630861 10.53787145 13.16030653 14.85287589 16.64453125 19.17578125 C19.21177347 22.25391745 21.89378275 25.19317698 24.625 28.125 C29.04637346 32.87129372 33.14135248 37.7848996 37 43 C31.64098467 44.78633844 26.64329944 45.8428732 21 45 C17.16170961 41.93415806 14.76065237 38.02450579 12 34 C10.36475966 32.13858174 8.69770635 30.30462795 7 28.5 C2.83615458 23.97408106 -1.09561719 19.31061916 -4.9453125 14.515625 C-6.77567272 12.27465165 -8.67628504 10.13730027 -10.625 8 C-11.40875 7.01 -12.1925 6.02 -13 5 C-12 2 -12 2 -10.29296875 1.015625 C-9.59816406 0.76296875 -8.90335937 0.5103125 -8.1875 0.25 C-7.15689453 -0.14445312 -7.15689453 -0.14445312 -6.10546875 -0.546875 C-3.54147168 -1.09868142 -2.41363948 -1.04900485 0 0 Z " fill="#F8BB00" transform="translate(350,46)"/>
<path d="M0 0 C9.24 0 18.48 0 28 0 C28 2.64 28 5.28 28 8 C22.39 8 16.78 8 11 8 C11 10.64 11 13.28 11 16 C16.28 16 21.56 16 27 16 C27 18.97 27 21.94 27 25 C22.05 25 17.1 25 12 25 C11.67 29.62 11.34 34.24 11 39 C7.37 39 3.74 39 0 39 C0 26.13 0 13.26 0 0 Z " fill="#F8BB00" transform="translate(249,347)"/>
<path d="M0 0 C0.66 0 1.32 0 2 0 C2 0.66 2 1.32 2 2 C3.10634041 2.41129654 3.10634041 2.41129654 4.23503113 2.8309021 C6.82219185 3.92481827 8.92284659 5.13171165 11.23950195 6.70556641 C12.03995438 7.24597565 12.8404068 7.78638489 13.66511536 8.34317017 C14.5142601 8.92343964 15.36340485 9.50370911 16.23828125 10.1015625 C17.11904831 10.69802582 17.99981537 11.29448914 18.90727234 11.9090271 C21.71204562 13.80992861 24.51230629 15.71736052 27.3125 17.625 C29.21650278 18.91710014 31.12079638 20.20877186 33.02539062 21.5 C37.68697631 24.66170809 42.34487689 27.82878558 47 31 C45.71368455 35.03791199 44.30766945 38.43360176 42 42 C38.89382166 41.37327589 36.63804983 40.33246406 33.96582031 38.64257812 C33.18531311 38.15116333 32.40480591 37.65974854 31.60064697 37.15344238 C28.07143687 34.88386542 24.54694358 32.6077633 21.03564453 30.31054688 C19.18001016 29.10446585 17.31566891 27.91167533 15.44287109 26.73242188 C12.73812903 25.02857239 10.06294762 23.28538804 7.390625 21.53125 C6.55009583 21.01212036 5.70956665 20.49299072 4.84356689 19.95812988 C-0.71637857 16.21747149 -0.71637857 16.21747149 -1.53234863 12.71484375 C-1.55485781 10.39745909 -1.37630062 8.28425765 -1 6 C-0.835 4.824375 -0.67 3.64875 -0.5 2.4375 C-0.335 1.633125 -0.17 0.82875 0 0 Z " fill="#F8BB00" transform="translate(242,162)"/>
<path d="M0 0 C1.5078125 1.6171875 1.5078125 1.6171875 3.125 3.875 C5.72823317 7.37514543 8.42710848 10.65911834 11.375 13.875 C15.34824934 18.22601158 19.08209623 22.72763335 22.78125 27.3125 C25.59651831 30.7225433 28.55952586 33.98132124 31.56640625 37.22265625 C33 39 33 39 33 41 C31.3548902 41.27418497 29.70665612 41.53527181 28.05078125 41.734375 C26.08368194 41.9891612 24.13372973 42.36713513 22.1875 42.75 C19.02790855 42.70730282 18.03155701 42.02701239 15.5859375 39.93359375 C12.9335472 37.04716901 10.44003432 34.0649446 8 31 C7.23429687 30.06671875 6.46859375 29.1334375 5.6796875 28.171875 C4.19179928 26.35737717 2.71251699 24.53578626 1.2421875 22.70703125 C-1.74652344 19.09870951 -4.92929798 15.68832417 -8.15234375 12.2890625 C-10.05342652 9.93380985 -11.03712713 7.85333007 -12 5 C-10.56705502 4.15885829 -9.12845595 3.32734313 -7.6875 2.5 C-6.88699219 2.0359375 -6.08648437 1.571875 -5.26171875 1.09375 C-3 0 -3 0 0 0 Z " fill="#F8BB00" transform="translate(333,51)"/>
<path d="M0 0 C3.96 0 7.92 0 12 0 C12.99 3.63 13.98 7.26 15 11 C15.28875 10.113125 15.5775 9.22625 15.875 8.3125 C16.82693759 5.50957267 17.90062169 2.74844577 19 0 C22.63 0 26.26 0 30 0 C30 8.25 30 16.5 30 25 C27.69 25 25.38 25 23 25 C22.67 21.37 22.34 17.74 22 14 C21.01 17.63 20.02 21.26 19 25 C16.36 25 13.72 25 11 25 C10.01 21.04 9.02 17.08 8 13 C7.67 16.96 7.34 20.92 7 25 C4.69 25 2.38 25 0 25 C0 16.75 0 8.5 0 0 Z " fill="#F8BB00" transform="translate(359,404)"/>
<path d="M0 0 C11.55 0 23.1 0 35 0 C35 2.64 35 5.28 35 8 C31.04 8 27.08 8 23 8 C23 18.23 23 28.46 23 39 C19.37 39 15.74 39 12 39 C10.55176489 36.10352978 10.99480366 33.68835083 11.12109375 30.4609375 C11.16943359 29.15898437 11.21777344 27.85703125 11.26757812 26.515625 C11.32410394 25.13541196 11.38074608 23.75520368 11.4375 22.375 C11.49072293 20.98699781 11.54346332 19.59897703 11.59570312 18.2109375 C11.72571163 14.80707859 11.86068883 11.40348883 12 8 C8.04 8 4.08 8 0 8 C0 5.36 0 2.72 0 0 Z " fill="#F8BB00" transform="translate(436,347)"/>
<path d="M0 0 C3.96 0 7.92 0 12 0 C12.33 9.9 12.66 19.8 13 30 C18.28 30 23.56 30 29 30 C29 32.97 29 35.94 29 39 C19.43 39 9.86 39 0 39 C0 26.13 0 13.26 0 0 Z " fill="#F8BB00" transform="translate(516,347)"/>
<path d="M0 0 C3.15165708 0.65232908 5.64828277 1.75449785 8.46484375 3.30078125 C9.33802246 3.77805664 10.21120117 4.25533203 11.11083984 4.74707031 C12.0436377 5.26366211 12.97643555 5.78025391 13.9375 6.3125 C14.89865723 6.84069336 15.85981445 7.36888672 16.85009766 7.91308594 C26.96597597 13.49255555 36.99464668 19.22518116 47 25 C47 25.66 47 26.32 47 27 C40.23242187 29.80729167 32.36097234 32.08012491 25.2199707 29.30932617 C19.53433843 26.61388901 14.45010076 23.04233589 9.3125 19.4375 C2.29420501 14.50589675 2.29420501 14.50589675 -5 10 C-3.66511872 6.40608886 -2.03977277 3.24509304 0 0 Z " fill="#F8BB00" transform="translate(390,145)"/>
<path d="M0 0 C0.67154933 1.28913487 1.33708859 2.58140204 2 3.875 C2.37125 4.59429687 2.7425 5.31359375 3.125 6.0546875 C4 8 4 8 4 10 C2.7939209 10.52001587 2.7939209 10.52001587 1.56347656 11.05053711 C-2.20837655 12.67792223 -5.97937868 14.3072634 -9.75 15.9375 C-10.76809753 16.3774379 -10.76809753 16.3774379 -11.8067627 16.82626343 C-21.32615259 20.94205933 -30.81641417 25.11222616 -40.23339844 29.45874023 C-45.78957938 32 -45.78957938 32 -48 32 C-48.99 28.37 -49.98 24.74 -51 21 C-43.890625 17.953125 -36.78125 14.90625 -29.671875 11.859375 C-28.90264709 11.52963684 -28.13341919 11.19989868 -27.34088135 10.86016846 C-25.79823668 10.19917433 -24.25539047 9.53865039 -22.71234131 8.87860107 C-19.06931949 7.31964284 -15.42955106 5.75412058 -11.79785156 4.16894531 C-11.15006744 3.88745636 -10.50228333 3.60596741 -9.83486938 3.31594849 C-8.09276311 2.55834554 -6.35223189 1.79712366 -4.61181641 1.03564453 C-2 0 -2 0 0 0 Z " fill="#F8BB00" transform="translate(265,266)"/>
<path d="M0 0 C6.01821399 1.89956742 11.79008207 4.0978767 17.54296875 6.6875 C18.3150618 7.03127686 19.08715485 7.37505371 19.88264465 7.72924805 C21.49938213 8.45002062 23.11523523 9.17277999 24.73022461 9.89746094 C27.18996961 11.00110807 29.652333 12.09872973 32.11523438 13.1953125 C33.69546763 13.90069424 35.27555101 14.60641185 36.85546875 15.3125 C37.5837236 15.63758545 38.31197845 15.9626709 39.06230164 16.29760742 C43.09133721 18.10695629 47.06370116 19.99384946 51 22 C50.48792856 25.75519057 49.7824918 28.66688525 48 32 C41.56179217 29.97299546 35.37415523 27.56827764 29.1875 24.875 C27.84510254 24.29274658 27.84510254 24.29274658 26.47558594 23.69873047 C24.60240753 22.88400597 22.73018388 22.06708307 20.85888672 21.24804688 C17.9846258 19.99328839 15.10383548 18.75439997 12.22265625 17.515625 C10.39801618 16.71971518 8.57378218 15.92287365 6.75 15.125 C5.88656982 14.75616699 5.02313965 14.38733398 4.13354492 14.00732422 C3.34181885 13.65686035 2.55009277 13.30639648 1.734375 12.9453125 C1.03538086 12.64125488 0.33638672 12.33719727 -0.38378906 12.02392578 C-2 11 -2 11 -3 8 C-2.24416183 5.23564083 -1.0857605 2.64925561 0 0 Z " fill="#F8BB00" transform="translate(336,265)"/>
<path d="M0 0 C2.72647743 1.31006491 5.24548312 2.7487387 7.75878906 4.43017578 C8.47923401 4.91052277 9.19967896 5.39086975 9.94195557 5.88577271 C10.70876648 6.40042084 11.47557739 6.91506897 12.265625 7.4453125 C13.45572174 8.24012527 13.45572174 8.24012527 14.66986084 9.05099487 C17.1980289 10.74016525 19.72403556 12.43253657 22.25 14.125 C23.96600423 15.27234723 25.68214845 16.41948512 27.3984375 17.56640625 C31.60058519 20.37517969 35.80079759 23.18682538 40 26 C38.35 29.63 36.7 33.26 35 37 C30.61682544 35.90420636 27.55395267 33.95779317 23.86328125 31.484375 C22.84321236 30.80510956 22.84321236 30.80510956 21.80253601 30.11212158 C20.36905178 29.1536448 18.93776481 28.19187474 17.50854492 27.22705078 C15.31944366 25.75467028 13.11639242 24.30498836 10.91210938 22.85546875 C9.51991771 21.92063297 8.12861042 20.98447851 6.73828125 20.046875 C6.07790359 19.61646912 5.41752594 19.18606323 4.73713684 18.74261475 C1.94949031 16.83039137 0.20929372 15.5967952 -0.92871094 12.35180664 C-1.00775867 9.74404363 -0.8734162 7.27846834 -0.5625 4.6875 C-0.46066406 3.80449219 -0.35882813 2.92148438 -0.25390625 2.01171875 C-0.17011719 1.34785156 -0.08632812 0.68398437 0 0 Z " fill="#F8BB00" transform="translate(241,182)"/>
<path d="M0 0 C2.84471322 1.40004514 4.19152172 3.34712919 6.1171875 5.85546875 C9.34543575 9.95061068 12.65229949 13.88918045 16.1796875 17.73046875 C26.9921875 29.52132288 26.9921875 29.52132288 26.9921875 31.98046875 C27.6521875 31.98046875 28.3121875 31.98046875 28.9921875 31.98046875 C28.9921875 32.64046875 28.9921875 33.30046875 28.9921875 33.98046875 C23.87883185 35.40196815 19.31902568 36.31139457 13.9921875 35.98046875 C9.95507534 33.03897405 7.71041917 29.11538469 4.9921875 24.98046875 C3.27844394 23.01082683 1.52836139 21.07217175 -0.2578125 19.16796875 C-10.0078125 8.53712763 -10.0078125 8.53712763 -10.0078125 5.98046875 C-8.3984375 4.4375 -8.3984375 4.4375 -6.2578125 2.79296875 C-5.56171875 2.24253906 -4.865625 1.69210938 -4.1484375 1.125 C-2.0078125 -0.01953125 -2.0078125 -0.01953125 0 0 Z " fill="#F8BB00" transform="translate(317.0078125,60.01953125)"/>
<path d="M0 0 C3.63 0 7.26 0 11 0 C12.98 4.29 14.96 8.58 17 13 C17.33 8.71 17.66 4.42 18 0 C20.31 0 22.62 0 25 0 C25 8.25 25 16.5 25 25 C21.37 25 17.74 25 14 25 C12.35 21.04 10.7 17.08 9 13 C8.67 16.96 8.34 20.92 8 25 C5.36 25 2.72 25 0 25 C0 16.75 0 8.5 0 0 Z M7 9 C8 11 8 11 8 11 Z " fill="#F8BB00" transform="translate(241,404)"/>
<path d="M0 0 C3.63 0 7.26 0 11 0 C12.98 4.62 14.96 9.24 17 14 C17.33 9.38 17.66 4.76 18 0 C20.31 0 22.62 0 25 0 C25 8.25 25 16.5 25 25 C21.37 25 17.74 25 14 25 C12.02 20.38 10.04 15.76 8 11 C7.67 15.62 7.34 20.24 7 25 C4.69 25 2.38 25 0 25 C0 16.75 0 8.5 0 0 Z " fill="#F8BB00" transform="translate(451,404)"/>
<path d="M0 0 C3.0625 2.3125 3.0625 2.3125 5 5 C5 6.32 5 7.64 5 9 C2.36 8.67 -0.28 8.34 -3 8 C-3 7.34 -3 6.68 -3 6 C-5.91652174 5.83318891 -5.91652174 5.83318891 -9 6 C-11.4282022 7.99557113 -11.4282022 7.99557113 -11.3125 11.9375 C-11.23778547 14.51515144 -11.17462874 15.71507942 -9.8125 17.9375 C-7.57501375 19.24912987 -5.55687669 19.65447612 -3 20 C-3 18.68 -3 17.36 -3 16 C-4.65 16 -6.3 16 -8 16 C-8 14.02 -8 12.04 -8 10 C-3.71 10 0.58 10 5 10 C5 14.62 5 19.24 5 24 C1.89979734 25.55010133 -1.34907903 25.30795676 -4.75 25.375 C-5.45382813 25.41238281 -6.15765625 25.44976562 -6.8828125 25.48828125 C-10.8147141 25.55405656 -13.28392869 25.19224563 -16.421875 22.71875 C-19.75382548 19.20505676 -20.70977517 16.76150113 -21 12 C-20.40542498 7.61500921 -19.40040874 5.02631383 -16.125 2.125 C-10.86674251 -1.45061509 -6.09935952 -1.59538407 0 0 Z " fill="#F8BB00" transform="translate(173,404)"/>
<path d="M0 0 C2.51625 -0.061875 5.0325 -0.12375 7.625 -0.1875 C8.79603271 -0.22846802 8.79603271 -0.22846802 9.99072266 -0.27026367 C14.72992741 -0.32621011 17.87931814 0.42457384 22 3 C25.20178309 6.6286875 25.52293256 10.10752105 25.3515625 14.78125 C24.79283837 18.30742007 23.36369816 20.38076691 21 23 C16.68165764 25.34174816 12.47109384 25.23528177 7.6875 25.125 C3.8821875 25.063125 3.8821875 25.063125 0 25 C0 16.75 0 8.5 0 0 Z M8 6 C8 10.29 8 14.58 8 19 C13.63642671 19.62775245 13.63642671 19.62775245 15.9375 17.4375 C17.44640049 13.97590475 16.8701627 11.61452199 16 8 C15.34 7.34 14.68 6.68 14 6 C12.02 6 10.04 6 8 6 Z " fill="#F8BB00" transform="translate(65,404)"/>
<path d="M0 0 C3.8053125 -0.12375 3.8053125 -0.12375 7.6875 -0.25 C8.87218872 -0.30462402 8.87218872 -0.30462402 10.08081055 -0.36035156 C13.89004756 -0.42007408 15.65645704 -0.21376006 18.98828125 1.859375 C21 4 21 4 21.5 6.5 C20.92718989 9.36405057 19.92417491 10.83530323 18 13 C18.99 13.33 19.98 13.66 21 14 C21.8125 16.6875 21.8125 16.6875 22 20 C20.0105096 22.75961572 18.44533607 24.71219862 14.99291992 25.3996582 C12.69948915 25.49204699 10.48028518 25.43645212 8.1875 25.3125 C4.1346875 25.1578125 4.1346875 25.1578125 0 25 C0 16.75 0 8.5 0 0 Z M8 6 C8.33 7.32 8.66 8.64 9 10 C10.32 9.67 11.64 9.34 13 9 C13 8.01 13 7.02 13 6 C11.35 6 9.7 6 8 6 Z M8 15 C8 16.32 8 17.64 8 19 C9.65 19 11.3 19 13 19 C13 17.68 13 16.36 13 15 C11.35 15 9.7 15 8 15 Z " fill="#F8BB00" transform="translate(393,404)"/>
<path d="M0 0 C3 6.625 3 6.625 3 10 C-1.32026452 11.98226593 -5.64362977 13.95754485 -9.9699707 15.92651367 C-11.44023765 16.59681813 -12.90965075 17.26899882 -14.37817383 17.94311523 C-16.49336747 18.91368326 -18.611575 19.87738535 -20.73046875 20.83984375 C-21.70888985 21.29145119 -21.70888985 21.29145119 -22.70707703 21.75218201 C-26.11640774 23.29240205 -29.29274269 24.45180907 -33 25 C-36.01087173 18.7373868 -36.01087173 18.7373868 -35.97192383 16.09570312 C-34.40956859 12.72688691 -31.26737121 11.90506836 -28.0078125 10.546875 C-27.30606903 10.24179016 -26.60432556 9.93670532 -25.88131714 9.62237549 C-24.39639124 8.98015509 -22.90833429 8.34513345 -21.41748047 7.71679688 C-19.13450214 6.75400729 -16.86177977 5.76977601 -14.58984375 4.78125 C-13.14638346 4.16017819 -11.7023897 3.5403445 -10.2578125 2.921875 C-9.57647247 2.62819031 -8.89513245 2.33450562 -8.19314575 2.03192139 C-5.29189248 0.81452575 -3.18037761 0 0 0 Z " fill="#F8BB00" transform="translate(404,207)"/>
<path d="M0 0 C7.53722849 2.37135261 14.75095458 5.3001669 22 8.4375 C23.14339844 8.91509766 24.28679687 9.39269531 25.46484375 9.88476562 C26.54894531 10.35462891 27.63304687 10.82449219 28.75 11.30859375 C29.73484375 11.72939209 30.7196875 12.15019043 31.734375 12.58374023 C34 14 34 14 34.86303711 16.0480957 C35.1051635 19.49872048 33.47626207 21.92937489 32 25 C24.02889185 22.54933568 16.52991078 19.24006872 8.9375 15.8125 C7.67791007 15.24765492 6.4181456 14.68319889 5.15820312 14.11914062 C2.10373617 12.74989682 -0.94891809 11.37676603 -4 10 C-3.52449439 8.51965236 -3.04448784 7.04074979 -2.5625 5.5625 C-2.29566406 4.73878906 -2.02882812 3.91507813 -1.75390625 3.06640625 C-1 1 -1 1 0 0 Z " fill="#F8BB00" transform="translate(198,207)"/>
<path d="M0 0 C6.6 0 13.2 0 20 0 C20 1.98 20 3.96 20 6 C16.04 6 12.08 6 8 6 C8.33 6.99 8.66 7.98 9 9 C12.3 9 15.6 9 19 9 C19 10.98 19 12.96 19 15 C15.37 15 11.74 15 8 15 C8 16.32 8 17.64 8 19 C11.96 19 15.92 19 20 19 C20 20.98 20 22.96 20 25 C13.4 25 6.8 25 0 25 C0 16.75 0 8.5 0 0 Z " fill="#F8BB00" transform="translate(31,404)"/>
<path d="M0 0 C2.97 0 5.94 0 9 0 C11.74512473 5.17350429 14.06611969 10.44640493 16.25 15.875 C16.52021973 16.54152588 16.79043945 17.20805176 17.06884766 17.89477539 C19 22.75246182 19 22.75246182 19 25 C16.03 25 13.06 25 10 25 C9.505 22.525 9.505 22.525 9 20 C6.03 20.33 3.06 20.66 0 21 C-0.33 22.32 -0.66 23.64 -1 25 C-3.64 25 -6.28 25 -9 25 C-8.38965243 21.51423718 -7.48391539 18.4128077 -6.15234375 15.13671875 C-5.61577148 13.80737305 -5.61577148 13.80737305 -5.06835938 12.45117188 C-4.50858398 11.0831543 -4.50858398 11.0831543 -3.9375 9.6875 C-3.56044922 8.75615234 -3.18339844 7.82480469 -2.79492188 6.86523438 C-1.86716875 4.57521083 -0.93541999 2.28690004 0 0 Z M4 7 C3.34 9.64 2.68 12.28 2 15 C3.65 15 5.3 15 7 15 C6.34 12.36 5.68 9.72 5 7 C4.67 7 4.34 7 4 7 Z " fill="#F8BB00" transform="translate(221,404)"/>
<path d="M0 0 C1.23556641 0.01740234 1.23556641 0.01740234 2.49609375 0.03515625 C3.32238281 0.04417969 4.14867187 0.05320312 5 0.0625 C5.63808594 0.07410156 6.27617188 0.08570313 6.93359375 0.09765625 C8.44214714 3.69830215 9.93895199 7.30371584 11.43359375 10.91015625 C11.86285156 11.93431641 12.29210937 12.95847656 12.734375 14.01367188 C13.34345703 15.48803711 13.34345703 15.48803711 13.96484375 16.9921875 C14.34189453 17.89815674 14.71894531 18.80412598 15.10742188 19.73754883 C15.93359375 22.09765625 15.93359375 22.09765625 15.93359375 25.09765625 C13.29359375 25.09765625 10.65359375 25.09765625 7.93359375 25.09765625 C7.69898438 24.453125 7.464375 23.80859375 7.22265625 23.14453125 C6.12198302 20.88986545 6.12198302 20.88986545 3.76953125 20.48828125 C2.55136719 20.41867187 2.55136719 20.41867187 1.30859375 20.34765625 C0.49132812 20.2909375 -0.3259375 20.23421875 -1.16796875 20.17578125 C-2.10769531 20.13710938 -2.10769531 20.13710938 -3.06640625 20.09765625 C-3.39640625 21.74765625 -3.72640625 23.39765625 -4.06640625 25.09765625 C-6.70640625 25.09765625 -9.34640625 25.09765625 -12.06640625 25.09765625 C-10.24647368 19.33453643 -8.17670414 13.7099508 -5.94140625 8.09765625 C-5.67569824 7.42661865 -5.40999023 6.75558105 -5.13623047 6.06420898 C-2.7516053 0.13003806 -2.7516053 0.13003806 0 0 Z M0.93359375 8.09765625 C0.60359375 10.40765625 0.27359375 12.71765625 -0.06640625 15.09765625 C1.25359375 15.09765625 2.57359375 15.09765625 3.93359375 15.09765625 C3.60359375 12.78765625 3.27359375 10.47765625 2.93359375 8.09765625 C2.27359375 8.09765625 1.61359375 8.09765625 0.93359375 8.09765625 Z " fill="#F8BB00" transform="translate(510.06640625,403.90234375)"/>
<path d="M0 0 C2.97 0 5.94 0 9 0 C11.90474323 5.55690009 14.23485417 11.06765743 16.25 17 C16.518125 17.77472656 16.78625 18.54945313 17.0625 19.34765625 C17.71321767 21.23008951 18.35732065 23.11480725 19 25 C16.03 25 13.06 25 10 25 C9.505 22.525 9.505 22.525 9 20 C7.54052295 20.06006078 6.08220728 20.1488689 4.625 20.25 C3.81289063 20.29640625 3.00078125 20.3428125 2.1640625 20.390625 C-0.18838927 20.7922092 -0.18838927 20.7922092 -1.2890625 23.046875 C-1.52367187 23.69140625 -1.75828125 24.3359375 -2 25 C-4.31 25 -6.62 25 -9 25 C-8.40414792 19.2306386 -6.23012403 14.38338464 -3.9375 9.125 C-3.56044922 8.24585938 -3.18339844 7.36671875 -2.79492188 6.4609375 C-1.86916924 4.30475414 -0.93538408 2.1520226 0 0 Z M4 7 C3.34 9.64 2.68 12.28 2 15 C3.65 15 5.3 15 7 15 C6.34 12.36 5.68 9.72 5 7 C4.67 7 4.34 7 4 7 Z " fill="#F8BB00" transform="translate(339,404)"/>
<path d="M0 0 C6.27 0 12.54 0 19 0 C19 1.98 19 3.96 19 6 C15.37 6 11.74 6 8 6 C8.33 6.99 8.66 7.98 9 9 C11.97 9 14.94 9 18 9 C18 10.98 18 12.96 18 15 C14.7 15 11.4 15 8 15 C8 16.32 8 17.64 8 19 C11.63 19 15.26 19 19 19 C19 20.98 19 22.96 19 25 C12.73 25 6.46 25 0 25 C0 16.75 0 8.5 0 0 Z " fill="#F8BB00" transform="translate(549,404)"/>
<path d="M0 0 C6.27 0 12.54 0 19 0 C19 1.98 19 3.96 19 6 C15.37 6 11.74 6 8 6 C8.33 6.99 8.66 7.98 9 9 C11.97 9 14.94 9 18 9 C18 10.98 18 12.96 18 15 C14.7 15 11.4 15 8 15 C8 16.32 8 17.64 8 19 C11.63 19 15.26 19 19 19 C19 20.98 19 22.96 19 25 C12.73 25 6.46 25 0 25 C0 16.75 0 8.5 0 0 Z " fill="#F8BB00" transform="translate(429,404)"/>
<path d="M0 0 C2.97 0 5.94 0 9 0 C10.32 4.29 11.64 8.58 13 13 C14.90389849 10.14415227 15.69462177 8.0688238 16.625 4.8125 C16.88539063 3.91144531 17.14578125 3.01039063 17.4140625 2.08203125 C17.60742188 1.39496094 17.80078125 0.70789063 18 0 C20.64 0 23.28 0 26 0 C24.43889635 8.74218041 21.21518143 16.75983375 18 25 C14.7 25 11.4 25 8 25 C6.66165014 21.21008507 5.33017337 17.41779164 4 13.625 C3.6184375 12.54476563 3.236875 11.46453125 2.84375 10.3515625 C2.4828125 9.3203125 2.121875 8.2890625 1.75 7.2265625 C1.41484375 6.27346191 1.0796875 5.32036133 0.734375 4.33837891 C0 2 0 2 0 0 Z " fill="#F8BB00" transform="translate(114,404)"/>
<path d="M0 0 C7.59 0 15.18 0 23 0 C23 1.98 23 3.96 23 6 C20.69 6 18.38 6 16 6 C16 12.27 16 18.54 16 25 C13.36 25 10.72 25 8 25 C8 18.73 8 12.46 8 6 C5.69 6 3.38 6 1 6 C0.67 5.67 0.34 5.34 0 5 C0 3.35 0 1.7 0 0 Z " fill="#F8BB00" transform="translate(477,404)"/>
<path d="M0 0 C2.64 0 5.28 0 8 0 C8 6.27 8 12.54 8 19 C11.63 19 15.26 19 19 19 C19 20.98 19 22.96 19 25 C12.73 25 6.46 25 0 25 C0 16.75 0 8.5 0 0 Z " fill="#F8BB00" transform="translate(528,404)"/>
<path d="M0 0 C0.66 0 1.32 0 2 0 C2 0.66 2 1.32 2 2 C3.04643677 2.37390869 3.04643677 2.37390869 4.11401367 2.75537109 C7.40097066 4.17292517 10.18814301 5.94192691 13.17578125 7.9140625 C13.74580368 8.28856537 14.31582611 8.66306824 14.90312195 9.04891968 C16.70903967 10.23677187 18.51079717 11.43076693 20.3125 12.625 C21.54204736 13.4353062 22.77186243 14.24520635 24.00195312 15.0546875 C27.00441383 17.03176966 30.00317739 19.01437909 33 21 C32.67 22.32 32.34 23.64 32 25 C27.86454725 24.35057577 24.41595212 22.99296423 20.60546875 21.27734375 C19.40341797 20.73916016 18.20136719 20.20097656 16.96289062 19.64648438 C15.70437666 19.07693432 14.44591375 18.50727145 13.1875 17.9375 C11.90971681 17.36346104 10.63172403 16.78988839 9.35351562 16.21679688 C6.23358473 14.8157713 3.11587282 13.41002202 0 12 C0 8.04 0 4.08 0 0 Z " fill="#F8BB00" transform="translate(240,201)"/>
<path d="M0 0 C2.64 0 5.28 0 8 0 C8 6.27 8 12.54 8 19 C11.63 19 15.26 19 19 19 C18.67 20.98 18.34 22.96 18 25 C12.06 25 6.12 25 0 25 C0 16.75 0 8.5 0 0 Z " fill="#F8BB00" transform="translate(193,404)"/>
<path d="M0 0 C1.32 3.3 2.64 6.6 4 10 C1.56568361 11.17374173 -0.87204182 12.33915763 -3.3125 13.5 C-4.00279297 13.83386719 -4.69308594 14.16773438 -5.40429688 14.51171875 C-10.66015625 17 -10.66015625 17 -14 17 C-14.67154933 15.71086513 -15.33708859 14.41859796 -16 13.125 C-16.37125 12.40570313 -16.7425 11.68640625 -17.125 10.9453125 C-18 9 -18 9 -18 7 C-15.37690901 5.82887054 -12.75171858 4.66294036 -10.125 3.5 C-9.37863281 3.16613281 -8.63226563 2.83226562 -7.86328125 2.48828125 C-7.14785156 2.17246094 -6.43242187 1.85664063 -5.6953125 1.53125 C-5.03547363 1.23798828 -4.37563477 0.94472656 -3.69580078 0.64257812 C-2 0 -2 0 0 0 Z " fill="#F8BB00" transform="translate(423,198)"/>
<path d="M0 0 C6.20477864 1.93624298 12.10825719 4.25609141 18 7 C17.60404157 8.48484412 17.18249294 9.9628831 16.75 11.4375 C16.51796875 12.26121094 16.2859375 13.08492187 16.046875 13.93359375 C15 16 15 16 13.34375 17 C9.69614104 17 6.88302922 15.25318955 3.75 13.5625 C3.1003125 13.22412109 2.450625 12.88574219 1.78125 12.53710938 C0.18185506 11.70213113 -1.40985859 10.85246886 -3 10 C-2.33758211 6.44920141 -1.42518229 3.32542534 0 0 Z " fill="#F8BB00" transform="translate(178,198)"/>
<path d="M0 0 C2.64 0 5.28 0 8 0 C8 8.25 8 16.5 8 25 C5.36 25 2.72 25 0 25 C0 16.75 0 8.5 0 0 Z " fill="#F8BB00" transform="translate(417,404)"/>
<path d="M0 0 C2.64 0 5.28 0 8 0 C8 8.25 8 16.5 8 25 C5.36 25 2.72 25 0 25 C0 16.75 0 8.5 0 0 Z " fill="#F8BB00" transform="translate(181,404)"/>
<path d="M0 0 C2.64 0 5.28 0 8 0 C8 8.25 8 16.5 8 25 C5.36 25 2.72 25 0 25 C0 16.75 0 8.5 0 0 Z " fill="#F8BB00" transform="translate(142,404)"/>
<path d="M0 0 C2.64 0 5.28 0 8 0 C8 8.25 8 16.5 8 25 C5.36 25 2.72 25 0 25 C0 16.75 0 8.5 0 0 Z " fill="#F8BB00" transform="translate(93,404)"/>
<path d="M0 0 C1.2065625 0.0309375 1.2065625 0.0309375 2.4375 0.0625 C3.79992729 3.05015781 5.12651952 6.05192696 6.4375 9.0625 C6.7571875 9.77792969 7.076875 10.49335938 7.40625 11.23046875 C9.22776662 15.5903025 9.69505585 18.48956963 8.4375 23.0625 C6.6875 23.8125 6.6875 23.8125 4.4375 24.0625 C0.58598348 21.02263507 -0.76438252 17.68436127 -2.375 13.125 C-3.03435547 11.31708984 -3.03435547 11.31708984 -3.70703125 9.47265625 C-4.555323 6.09110967 -4.64046068 4.33251481 -3.5625 1.0625 C-2.5625 0.0625 -2.5625 0.0625 0 0 Z " fill="#F8BB00" transform="translate(352.5625,221.9375)"/>
<path d="M0 0 C3.72177836 1.68366164 4.26626423 4.00808245 5.70703125 7.70703125 C6.00996094 8.52558594 6.31289063 9.34414062 6.625 10.1875 C6.93824219 10.91324219 7.25148438 11.63898438 7.57421875 12.38671875 C9.24520956 16.35626706 10.04882178 19.04547302 8.625 23.1875 C6.3125 23.875 6.3125 23.875 3.625 24.1875 C0.18518026 21.77783461 -0.71396465 18.1434743 -2.0625 14.3125 C-2.49949219 13.09820312 -2.93648438 11.88390625 -3.38671875 10.6328125 C-4.27018209 7.55291264 -4.76592816 5.34891902 -4.375 2.1875 C-2.375 0.1875 -2.375 0.1875 0 0 Z " fill="#F8BB00" transform="translate(362.375,217.8125)"/>
<path d="M0 0 C1.9375 0.0625 1.9375 0.0625 4 1 C6.25058188 4.34052336 7.80417866 7.72634179 9.1875 11.5 C9.53167969 12.4178125 9.87585938 13.335625 10.23046875 14.28125 C11.01236097 17.04367123 11.29784782 19.14847329 11 22 C9 24 9 24 6.625 24.1875 C2.9042631 22.5043095 2.36026549 20.18136418 0.91796875 16.484375 C0.61503906 15.66453125 0.31210937 14.8446875 0 14 C-0.46986328 12.89398438 -0.46986328 12.89398438 -0.94921875 11.765625 C-2.47704319 8.08778516 -3.39358275 5.77590856 -2 2 C-1.34 1.34 -0.68 0.68 0 0 Z " fill="#F8BB00" transform="translate(341,225)"/>
<path d="M0 0 C2.625 0.375 2.625 0.375 5 1 C6.42511465 6.30505105 5.30964827 9.87337034 3.1875 14.75 C2.77661133 15.75740234 2.77661133 15.75740234 2.35742188 16.78515625 C1.16802578 19.63172051 0.20052741 21.79947259 -2 24 C-4.625 23.625 -4.625 23.625 -7 23 C-8.70582878 17.98111648 -7.06290626 14.49043208 -5.1875 9.8125 C-4.91357422 9.08869141 -4.63964844 8.36488281 -4.35742188 7.61914062 C-2.29034479 2.29034479 -2.29034479 2.29034479 0 0 Z " fill="#F8BB00" transform="translate(257,225)"/>
<path d="M0 0 C4.55555556 0.55555556 4.55555556 0.55555556 6 2 C5.67289552 9.19629865 3.13265517 18.86734483 -2 24 C-4.93453261 23.63318342 -5.86437246 23.13562754 -8 21 C-7.62288208 14.26989556 -4.78864454 4.78864454 0 0 Z " fill="#F8BB00" transform="translate(247,222)"/>
<path d="M0 0 C4.55555556 0.55555556 4.55555556 0.55555556 6 2 C6.45449089 7.07643214 5.16811115 11.16212977 3.3125 15.8125 C3.06822266 16.49248047 2.82394531 17.17246094 2.57226562 17.87304688 C1.80078125 19.83203125 1.80078125 19.83203125 0 23 C-2.70703125 23.94921875 -2.70703125 23.94921875 -5 24 C-6.66796875 22.04296875 -6.66796875 22.04296875 -8 19 C-7.56066961 15.93227505 -6.45402605 13.18213586 -5.3125 10.3125 C-5.02955078 9.54099609 -4.74660156 8.76949219 -4.45507812 7.97460938 C-2.33054315 2.33054315 -2.33054315 2.33054315 0 0 Z " fill="#F8BB00" transform="translate(237,218)"/>
<path d="M0 0 C1.9375 1.8125 1.9375 1.8125 3 4 C3 4.99 3 5.98 3 7 C0.75564555 8.03516348 -1.49406867 9.05314977 -3.75 10.0625 C-4.38421875 10.35705078 -5.0184375 10.65160156 -5.671875 10.95507812 C-10.45095438 13.07081639 -10.45095438 13.07081639 -13.453125 12.68359375 C-13.96359375 12.45800781 -14.4740625 12.23242188 -15 12 C-15.5 8.8125 -15.5 8.8125 -15 5 C-10.85517424 0.7391613 -5.88294124 -1.0381661 0 0 Z " fill="#F8BB00" transform="translate(418,190)"/>
<path d="M0 0 C4.84129734 0.46107594 8.35392833 2.05364089 11.9375 5.375 C12.97906996 8.06960886 13.12680132 8.92067682 12 11.625 C11.4740625 12.49125 11.4740625 12.49125 10.9375 13.375 C6.70427156 12.75454537 3.41459705 11.26976441 -0.375 9.3125 C-1.44363281 8.76464844 -2.51226562 8.21679688 -3.61328125 7.65234375 C-4.82564453 7.02005859 -4.82564453 7.02005859 -6.0625 6.375 C-3.78902389 0.46396211 -3.78902389 0.46396211 0 0 Z " fill="#F8BB00" transform="translate(186.0625,189.625)"/>
<path d="M0 0 C1.875 1.6875 1.875 1.6875 3 4 C2.9203841 7.264252 2.48252097 8.53356306 0.125 10.8125 C-2 12 -2 12 -5 12 C-5.99 8.7 -6.98 5.4 -8 2 C-4.77856724 -0.14762184 -3.7404533 -0.561068 0 0 Z " fill="#F8BB00" transform="translate(433,195)"/>
<path d="M0 0 C0.928125 0.20625 1.85625 0.4125 2.8125 0.625 C3.76715783 2.79467689 3.95651212 4.18828793 3.2109375 6.44921875 C2.45379615 8.1934743 1.63640802 9.91127131 0.8125 11.625 C-4.9375 10 -4.9375 10 -7.1875 6.625 C-7 4.0625 -7 4.0625 -6.1875 1.625 C-3.1875 -0.375 -3.1875 -0.375 0 0 Z " fill="#F8BB00" transform="translate(172.1875,195.375)"/>
<path d="M0 0 C2.8992226 0.46761655 3.86675182 0.86675182 6 3 C6.35877543 5.79844834 6.33812547 7.403308 4.9375 9.875 C1.88430685 11.64782183 -0.66411708 10.69235306 -4 10 C-3.52449439 8.51965236 -3.04448784 7.04074979 -2.5625 5.5625 C-2.29566406 4.73878906 -2.02882813 3.91507812 -1.75390625 3.06640625 C-1 1 -1 1 0 0 Z " fill="#F8BB00" transform="translate(390,289)"/>
<path d="M0 0 C3.07692308 6.4 3.07692308 6.4 2.6875 9.4375 C2.460625 9.953125 2.23375 10.46875 2 11 C-0.8125 11.25 -0.8125 11.25 -4 11 C-6 9.3125 -6 9.3125 -7 7 C-6.06446197 3.07074028 -4.53259136 0 0 0 Z " fill="#F8BB00" transform="translate(212,289)"/>
<path d="M0 0 C3 6.5 3 6.5 3 11 C1.02 11.66 -0.96 12.32 -3 13 C-3.99 9.37 -4.98 5.74 -6 2 C-2 0 -2 0 0 0 Z " fill="#F8BB00" transform="translate(339,235)"/>
<path d="M0 0 C1.98 0.66 3.96 1.32 6 2 C5.01 5.63 4.02 9.26 3 13 C1.02 12.34 -0.96 11.68 -3 11 C-2.69078116 9.54096742 -2.37751201 8.08279278 -2.0625 6.625 C-1.88847656 5.81289062 -1.71445312 5.00078125 -1.53515625 4.1640625 C-1 2 -1 2 0 0 Z " fill="#F8BB00" transform="translate(262,235)"/>
</svg>
