 <svg version="1.1" xmlns="http://www.w3.org/2000/svg" width="600" height="429"> <path d="M0 0 C1.57 0.02 1.57 0.02 3.18 0.03 C13.19 0.23 22.82 1.39 32.63 3.38 C33.52 3.55 34.42 3.73 35.34 3.91 C54.57 7.84 73.01 14.23 91.51 20.65 C93.54 21.34 95.56 22.03 97.59 22.72 C101.09 23.90 104.58 25.10 108.06 26.31 C109.07 26.65 110.09 26.99 111.13 27.34 C116.46 29.24 119.91 30.94 123.63 35.38 C124.55 36.36 125.48 37.34 126.42 38.32 C127.41 39.38 128.39 40.44 129.38 41.5 C130.16 42.34 130.16 42.34 130.95 43.20 C135.10 47.72 138.99 52.40 142.79 57.23 C144.62 59.57 144.62 59.57 147.63 61.38 C150.91 61.32 150.91 61.32 154.70 60.78 C155.42 60.69 156.14 60.60 156.88 60.51 C158.44 60.32 160.00 60.12 161.56 59.92 C164.04 59.60 166.52 59.29 169.01 58.99 C174.30 58.34 179.59 57.67 184.88 57 C190.97 56.23 197.06 55.47 203.15 54.72 C205.57 54.42 207.99 54.11 210.42 53.80 C229.06 51.45 246.83 52.96 265.46 54.78 C268.04 55.03 270.62 55.28 273.20 55.52 C279.26 56.10 285.31 56.69 291.37 57.27 C298.27 57.94 305.18 58.61 312.08 59.27 C326.27 60.63 340.45 62.00 354.63 63.38 C349.55 72.04 342.02 77.07 332.38 79.75 C327.27 80.59 322.55 80.12 317.45 79.56 C316.57 79.47 315.69 79.38 314.78 79.28 C305.74 78.31 296.73 77.17 287.71 75.99 C286.00 75.77 284.29 75.55 282.58 75.33 C278.14 74.76 273.70 74.18 269.27 73.60 C262.11 72.67 254.96 71.74 247.80 70.82 C245.32 70.50 242.83 70.17 240.34 69.85 C238.83 69.65 237.32 69.46 235.81 69.26 C235.12 69.17 234.43 69.08 233.73 68.99 C231.00 68.64 228.38 68.38 225.63 68.38 C223.88 70.53 223.88 70.53 222.25 73.39 C221.60 74.47 220.95 75.55 220.28 76.66 C219.58 77.83 218.88 79.01 218.19 80.19 C217.11 81.97 216.04 83.76 214.96 85.54 C214.23 86.74 213.51 87.94 212.79 89.15 C209.03 95.39 205.11 101.54 201.17 107.67 C200.71 108.39 200.26 109.10 199.79 109.84 C199.39 110.45 198.99 111.07 198.59 111.70 C197.46 113.53 197.46 113.53 196.63 116.38 C176.14 112.67 155.73 108.65 135.32 104.54 C131.28 103.73 127.23 102.92 123.19 102.11 C115.33 100.53 107.48 98.95 99.63 97.38 C101.04 100.54 102.45 103.71 103.87 106.87 C104.26 107.76 104.66 108.64 105.06 109.56 C107.99 116.08 111.14 122.42 114.51 128.72 C115.63 131.38 115.63 131.38 114.63 134.38 C113.99 133.84 113.36 133.31 112.71 132.76 C107.02 128.01 101.21 123.58 95.16 119.31 C90.69 116.16 86.30 112.92 81.94 109.63 C73.69 103.41 65.37 97.28 57.05 91.16 C53.07 88.23 49.10 85.30 45.13 82.38 C43.54 81.21 41.96 80.04 40.38 78.88 C30.88 71.88 30.88 71.88 28.50 70.12 C26.92 68.96 25.35 67.80 23.77 66.64 C18.86 63.02 13.95 59.40 9.04 55.77 C5.90 53.45 2.75 51.14 -0.40 48.84 C-2.07 47.60 -3.72 46.35 -5.37 45.08 C-15.17 37.74 -27.30 34.14 -39.56 35.81 C-40.49 36.00 -41.42 36.18 -42.38 36.38 C-43.06 38.87 -43.38 40.75 -43.38 43.38 C-46.27 43.08 -47.21 42.57 -49.13 40.31 C-50.74 36.52 -51.39 33.37 -50.38 29.38 C-48.44 26.30 -45.96 23.91 -43.38 21.38 C-42.63 20.57 -41.88 19.76 -41.11 18.93 C-29.19 6.35 -17.38 -0.25 0 0 Z M-24.38 16.38 C-24.54 18.88 -24.54 18.88 -24.38 21.38 C-23.32 22.66 -23.32 22.66 -20.88 22.5 C-18.43 22.66 -18.43 22.66 -17.38 21.38 C-17.21 18.88 -17.21 18.88 -17.38 16.38 C-18.43 15.09 -18.43 15.09 -20.88 15.25 C-23.32 15.09 -23.32 15.09 -24.38 16.38 Z M39.63 23.38 C49.33 24.66 58.81 25.72 68.63 25.38 C61.70 20.76 46.76 18.62 39.63 23.38 Z M27.63 28.38 C26.96 29.04 26.30 29.70 25.63 30.38 C34.93 32.85 44.30 34.81 53.75 36.65 C56.22 37.13 58.68 37.63 61.15 38.12 C62.73 38.43 64.30 38.74 65.88 39.05 C66.61 39.20 67.35 39.34 68.10 39.50 C71.43 40.13 73.36 40.46 76.63 39.38 C66.00 31.52 53.12 31.08 40.38 29.56 C39.16 29.41 37.94 29.27 36.69 29.11 C35.55 28.99 34.41 28.86 33.23 28.73 C32.20 28.61 31.17 28.50 30.11 28.38 C28.88 28.38 28.88 28.38 27.63 28.38 Z M16.63 34.38 C17.97 37.07 19.29 37.28 22.05 38.45 C23.46 39.06 23.46 39.06 24.90 39.68 C25.93 40.11 26.96 40.54 28.02 40.99 C29.61 41.67 29.61 41.67 31.22 42.36 C34.63 43.81 38.03 45.25 41.44 46.69 C43.69 47.65 45.95 48.61 48.20 49.57 C53.35 51.76 58.51 53.95 63.66 56.13 C65.77 57.01 67.86 57.90 69.96 58.80 C71.04 59.26 72.13 59.72 73.24 60.19 C74.22 60.61 75.21 61.03 76.22 61.46 C78.51 62.49 78.51 62.49 80.63 62.38 C79.51 57.65 76.91 55.50 73.07 52.86 C70.74 51.44 68.62 50.51 66.05 49.61 C65.09 49.27 64.12 48.94 63.13 48.59 C61.97 48.19 60.82 47.79 59.63 47.38 C58.17 46.86 56.71 46.35 55.25 45.84 C51.12 44.38 46.98 42.95 42.83 41.52 C41.10 40.92 39.37 40.32 37.63 39.71 C35.10 38.82 32.57 37.95 30.04 37.08 C29.27 36.81 28.50 36.53 27.70 36.25 C23.89 34.95 20.72 34.02 16.63 34.38 Z M8.63 38.38 C12.87 43.04 17.69 46.27 22.96 49.68 C23.88 50.28 24.79 50.87 25.73 51.49 C27.67 52.76 29.61 54.03 31.56 55.29 C36.56 58.55 41.55 61.82 46.54 65.10 C48.00 66.05 48.00 66.05 49.49 67.03 C59.63 73.67 69.66 80.47 79.63 87.38 C80.28 87.05 80.94 86.72 81.63 86.38 C81.11 85.18 80.59 83.98 80.06 82.75 C79.77 82.08 79.48 81.40 79.18 80.71 C74.08 73.06 65.21 68.96 57.44 64.5 C56.16 63.76 54.89 63.02 53.61 62.29 C50.97 60.75 48.32 59.22 45.66 57.70 C42.31 55.77 38.97 53.83 35.63 51.89 C33.08 50.40 30.52 48.92 27.96 47.44 C26.74 46.73 25.53 46.03 24.31 45.32 C22.62 44.33 20.92 43.35 19.22 42.38 C18.26 41.82 17.29 41.26 16.30 40.69 C13.70 39.41 11.48 38.79 8.63 38.38 Z " fill="#F8BB00" transform="translate(184.38,38.63)"/> <path d="M0 0 C-0.08 2.67 -0.55 4.46 -2.27 6.53 C-14.84 18.12 -34.88 18.41 -51.07 19.95 C-52.83 20.12 -54.60 20.29 -56.36 20.46 C-61.10 20.93 -65.84 21.39 -70.58 21.84 C-75.59 22.32 -80.59 22.81 -85.60 23.30 C-95.08 24.23 -104.57 25.15 -114.06 26.06 C-127.90 27.40 -141.74 28.75 -155.58 30.10 C-156.61 30.20 -157.63 30.30 -158.69 30.40 C-160.74 30.60 -162.79 30.80 -164.84 31.00 C-170.75 31.57 -176.67 32.15 -182.59 32.72 C-207.10 35.08 -207.10 35.08 -231.60 37.65 C-232.65 37.77 -233.71 37.88 -234.80 38.00 C-256.16 40.38 -276.13 47.99 -292.63 62 C-295 64 -295 64 -297 64 C-298.73 62.25 -298.73 62.25 -300.63 60 C-301.26 59.26 -301.89 58.52 -302.54 57.75 C-303.02 57.17 -303.50 56.59 -304 56 C-300.51 46.63 -286.17 40.78 -277.81 36.69 C-277.03 36.29 -276.24 35.90 -275.43 35.49 C-260.78 28.59 -244.68 26.20 -228.73 24.52 C-226.90 24.32 -225.08 24.11 -223.26 23.90 C-219.43 23.47 -215.61 23.05 -211.79 22.63 C-206.12 22.02 -200.45 21.37 -194.78 20.72 C-182.98 19.36 -171.18 18.03 -159.38 16.70 C-157.24 16.46 -155.11 16.22 -152.98 15.98 C-142.99 14.85 -133.01 13.73 -123.03 12.60 C-111.60 11.32 -100.17 10.03 -88.74 8.73 C-79.82 7.72 -70.89 6.72 -61.96 5.72 C-56.67 5.12 -51.37 4.52 -46.07 3.92 C-41.12 3.36 -36.17 2.80 -31.22 2.25 C-29.41 2.05 -27.60 1.84 -25.79 1.63 C-17.17 0.65 -8.69 -0.27 0 0 Z " fill="#F8BB00" transform="translate(600,0)"/> <path d="M0 0 C11.87 0.58 23.57 1.81 35.35 3.33 C37.24 3.57 39.12 3.81 41.01 4.04 C46.09 4.69 51.16 5.33 56.24 5.98 C60.50 6.53 64.77 7.07 69.03 7.62 C79.11 8.90 89.18 10.19 99.26 11.48 C109.59 12.81 119.92 14.12 130.25 15.43 C139.18 16.56 148.10 17.70 157.03 18.84 C162.33 19.52 167.64 20.20 172.94 20.87 C271.68 33.34 271.68 33.34 297.63 61.15 C299 63 299 63 299 65 C293.83 63.35 288.78 61.55 283.78 59.45 C257.84 48.62 230.79 39.62 202.79 36.50 C201.66 36.38 200.52 36.25 199.35 36.11 C189.22 34.99 179.08 34.07 168.93 33.21 C142.58 30.96 116.26 28.47 89.94 25.94 C84.16 25.38 78.38 24.83 72.61 24.29 C67.08 23.77 61.56 23.24 56.04 22.70 C53.98 22.51 51.93 22.31 49.88 22.12 C11.96 18.61 11.96 18.61 1.00 5.75 C0 4 0 4 0 0 Z " fill="#F8BB00" transform="translate(0,0)"/> <path d="M0 0 C4.34 3.43 7.15 7.50 9.81 12.31 C10.15 12.93 10.50 13.54 10.85 14.18 C14.41 21.92 14.10 31.80 11.19 39.69 C6.63 49.35 0.01 56.52 -10.11 60.45 C-21.11 63.60 -29.54 62.37 -39.53 56.91 C-47.63 52.05 -52.01 45.67 -55.56 36.94 C-57.40 26.30 -56.35 17.14 -50.68 7.84 C-44.63 -0.57 -37.34 -5.12 -27.24 -7.28 C-16.88 -8.66 -8.49 -5.79 0 0 Z M-24.19 5.31 C-24.19 11.25 -24.19 17.19 -24.19 23.31 C-22.54 23.31 -20.89 23.31 -19.19 23.31 C-19.19 17.37 -19.19 11.43 -19.19 5.31 C-20.84 5.31 -22.49 5.31 -24.19 5.31 Z M-34.19 9.31 C-34.19 22.18 -34.19 35.05 -34.19 48.31 C-32.87 48.31 -31.55 48.31 -30.19 48.31 C-30.19 42.37 -30.19 36.43 -30.19 30.31 C-24.91 30.64 -19.63 30.97 -14.19 31.31 C-12.70 39.23 -12.70 39.23 -11.19 47.31 C-9.54 47.64 -7.89 47.97 -6.19 48.31 C-6.47 45.87 -6.76 43.44 -7.06 41 C-7.14 40.31 -7.22 39.62 -7.30 38.91 C-7.75 35.36 -8.17 33.34 -10.19 30.31 C-11.18 30.31 -12.17 30.31 -13.19 30.31 C-12.40 29.57 -11.62 28.83 -10.81 28.06 C-7.28 24.36 -6.16 22.98 -6.25 17.81 C-7.37 13.62 -8.53 12.53 -12.19 10.31 C-14.37 9.53 -14.37 9.53 -16.19 9.31 C-15.77 12.95 -15.77 12.95 -13.63 15.75 C-12.19 17.31 -12.19 17.31 -11.75 20.31 C-12.19 23.31 -12.19 23.31 -13.76 24.96 C-18.66 27.69 -24.71 27.06 -30.19 27.31 C-30.19 22.69 -30.19 18.07 -30.19 13.31 C-29.20 13.31 -28.21 13.31 -27.19 13.31 C-27.19 11.99 -27.19 10.67 -27.19 9.31 C-29.50 9.31 -31.81 9.31 -34.19 9.31 Z M-24.19 34.31 C-24.19 38.93 -24.19 43.55 -24.19 48.31 C-22.54 48.31 -20.89 48.31 -19.19 48.31 C-19.19 43.69 -19.19 39.07 -19.19 34.31 C-20.84 34.31 -22.49 34.31 -24.19 34.31 Z " fill="#F8BB00" transform="translate(322.19,228.69)"/> <path d="M0 0 C-2.44 5.79 -4.77 9.44 -10 13 C-14.57 14.82 -19.03 15.49 -23.89 15.94 C-24.67 16.02 -25.44 16.10 -26.24 16.18 C-28.81 16.43 -31.39 16.67 -33.96 16.92 C-35.80 17.10 -37.63 17.28 -39.47 17.46 C-44.41 17.94 -49.36 18.42 -54.30 18.89 C-59.43 19.39 -64.56 19.89 -69.69 20.39 C-78.05 21.20 -86.41 22.01 -94.77 22.82 C-105.29 23.83 -115.82 24.86 -126.34 25.89 C-132.95 26.54 -139.55 27.19 -146.15 27.83 C-147.72 27.99 -149.29 28.14 -150.86 28.29 C-155.28 28.73 -159.71 29.16 -164.14 29.59 C-166.10 29.78 -168.05 29.97 -170.01 30.16 C-171.16 30.27 -172.31 30.39 -173.49 30.50 C-174.49 30.60 -175.49 30.69 -176.52 30.79 C-179 31 -179 31 -182 31 C-184.26 28.66 -184.26 28.66 -186.69 25.63 C-187.90 24.13 -187.90 24.13 -189.14 22.60 C-191 20 -191 20 -191 18 C-166.98 15.65 -142.97 13.30 -118.95 10.96 C-107.80 9.87 -96.64 8.78 -85.49 7.69 C-75.77 6.74 -66.06 5.79 -56.34 4.84 C-51.19 4.34 -46.04 3.84 -40.90 3.33 C-36.05 2.86 -31.21 2.39 -26.36 1.92 C-24.59 1.74 -22.81 1.57 -21.03 1.39 C-18.60 1.15 -16.17 0.92 -13.74 0.68 C-13.04 0.61 -12.34 0.54 -11.62 0.47 C-7.73 0.10 -3.90 -0.07 0 0 Z " fill="#F8BB00" transform="translate(565,22)"/> <path d="M0 0 C-1.96 6.22 -6.19 10.10 -11.88 13.17 C-19.77 16.27 -29.21 16.43 -37.60 17.24 C-39.23 17.40 -39.23 17.40 -40.90 17.56 C-44.45 17.91 -48.01 18.26 -51.57 18.60 C-54.05 18.85 -56.54 19.09 -59.03 19.33 C-64.21 19.84 -69.40 20.35 -74.59 20.85 C-80.59 21.43 -86.58 22.02 -92.58 22.61 C-98.36 23.17 -104.15 23.74 -109.94 24.30 C-112.39 24.54 -114.85 24.78 -117.31 25.02 C-120.73 25.36 -124.15 25.69 -127.57 26.02 C-129.10 26.17 -129.10 26.17 -130.65 26.32 C-131.58 26.41 -132.51 26.50 -133.47 26.60 C-134.68 26.71 -134.68 26.71 -135.92 26.83 C-138 27 -138 27 -141 27 C-142.75 25.17 -142.75 25.17 -144.56 22.75 C-145.16 21.96 -145.76 21.17 -146.38 20.36 C-147.81 18.28 -148.90 16.26 -150 14 C-131.62 12.17 -113.25 10.34 -94.87 8.52 C-86.34 7.68 -77.81 6.83 -69.27 5.98 C-61.83 5.24 -54.39 4.50 -46.96 3.77 C-43.02 3.38 -39.08 2.99 -35.14 2.59 C-31.43 2.22 -27.72 1.85 -24.01 1.49 C-22.01 1.29 -20.01 1.09 -18.01 0.89 C-11.97 0.30 -6.06 -0.16 0 0 Z " fill="#F8BB00" transform="translate(538,43)"/> <path d="M0 0 C14.77 0.73 29.47 2.24 44.19 3.69 C46.90 3.95 49.62 4.22 52.33 4.48 C58.00 5.04 63.66 5.59 69.32 6.15 C75.84 6.79 82.37 7.43 88.90 8.06 C95.89 8.75 102.88 9.43 109.87 10.12 C111.87 10.31 113.87 10.51 115.86 10.70 C119.59 11.07 123.32 11.43 127.05 11.80 C128.15 11.91 129.25 12.01 130.38 12.13 C135.93 12.67 141.47 13.28 147 14 C147 14.66 147 15.32 147 16 C146.19 16.39 145.38 16.77 144.55 17.17 C143.48 17.69 142.41 18.21 141.31 18.75 C140.26 19.26 139.20 19.77 138.11 20.30 C134.98 21.83 134.98 21.83 132.80 24.12 C129.09 26.61 126.28 26.24 122.03 25.73 C121.23 25.65 120.42 25.57 119.59 25.49 C116.89 25.22 114.20 24.92 111.5 24.63 C109.59 24.43 107.67 24.24 105.76 24.04 C101.53 23.62 97.30 23.18 93.08 22.73 C86.05 22.00 79.01 21.32 71.97 20.65 C66.47 20.13 60.97 19.60 55.47 19.07 C54.12 18.94 52.76 18.81 51.41 18.68 C46.90 18.25 42.38 17.81 37.87 17.37 C36.73 17.26 35.60 17.15 34.42 17.04 C10.04 14.62 10.04 14.62 2.49 6.34 C1.01 4.23 0 2.63 0 0 Z " fill="#F8BB00" transform="translate(19,22)"/> <path d="M0 0 C-2.31 6.75 -5.95 10.65 -12.23 13.86 C-21.40 17.63 -32.66 17.56 -42.45 18.51 C-43.79 18.64 -45.14 18.77 -46.48 18.90 C-49.28 19.18 -52.07 19.45 -54.87 19.71 C-58.42 20.06 -61.97 20.41 -65.52 20.76 C-68.29 21.03 -71.06 21.30 -73.83 21.56 C-75.76 21.75 -77.70 21.94 -79.63 22.14 C-99.53 24.02 -99.53 24.02 -104.04 20.88 C-104.75 19.97 -105.46 19.06 -106.19 18.13 C-106.92 17.22 -107.66 16.32 -108.42 15.38 C-110 13 -110 13 -110 11 C-87.93 8.45 -65.83 6.26 -43.71 4.09 C-39.96 3.72 -36.20 3.35 -32.45 2.97 C-28.82 2.62 -25.19 2.26 -21.57 1.90 C-19.84 1.73 -18.11 1.56 -16.39 1.39 C-14.00 1.15 -11.62 0.92 -9.23 0.69 C-8.17 0.58 -8.17 0.58 -7.09 0.47 C-2.23 0 -2.23 0 0 0 Z " fill="#F8BB00" transform="translate(513,63)"/> <path d="M0 0 C6.25 -0.08 12.34 0.20 18.56 0.83 C19.47 0.91 20.38 1.00 21.31 1.09 C24.28 1.38 27.25 1.67 30.22 1.97 C32.29 2.17 34.37 2.37 36.44 2.57 C41.87 3.10 47.30 3.64 52.73 4.17 C58.28 4.72 63.83 5.26 69.38 5.80 C80.25 6.86 91.13 7.93 102 9 C99.32 14.52 96.15 18.56 91 22 C88.25 22.29 88.25 22.29 85.03 21.94 C84.41 21.88 83.78 21.82 83.14 21.76 C81.65 21.61 80.16 21.45 78.67 21.29 C75.59 20.96 72.50 20.67 69.41 20.39 C63.68 19.86 57.94 19.30 52.21 18.73 C48.18 18.32 44.15 17.93 40.12 17.54 C36.87 17.23 33.61 16.90 30.36 16.57 C28.57 16.40 28.57 16.40 26.74 16.23 C8.12 14.31 8.12 14.31 2 8 C-0.01 4.94 0 3.86 0 0 Z " fill="#F8BB00" transform="translate(42,41)"/> <path d="M0 0 C10.15 1.57 20.18 3.62 30.23 5.70 C31.97 6.05 33.70 6.41 35.43 6.76 C39.95 7.69 44.46 8.62 48.98 9.55 C53.61 10.51 58.23 11.46 62.86 12.41 C71.91 14.27 80.95 16.13 90 18 C91.13 23.11 90.44 26.00 89 31 C75.30 29.01 61.73 26.36 48.15 23.67 C44.13 22.87 40.10 22.09 36.07 21.32 C32.13 20.58 28.20 19.81 24.27 19.02 C22.79 18.73 21.30 18.44 19.80 18.17 C17.72 17.78 15.65 17.36 13.58 16.93 C12.40 16.71 11.23 16.48 10.01 16.24 C6.10 14.63 4.99 12.66 3 9 C1.79 6.05 0.92 3.04 0 0 Z " fill="#F8BB00" transform="translate(290,141)"/> <path d="M0 0 C4.33 0.64 7.87 2.19 11.81 4.06 C12.97 4.61 14.14 5.16 15.33 5.72 C16.21 6.14 17.09 6.57 18 7 C17.54 8.38 17.08 9.75 16.63 11.13 C16.35 11.95 16.08 12.78 15.80 13.64 C15.19 15.43 14.49 17.19 13.75 18.94 C12.30 24.85 13.00 30.71 15.94 36.06 C17.68 39.04 17.68 39.04 20 40 C20 40.66 20 41.32 20 42 C18.39 43.25 18.39 43.25 16.25 44.56 C15.55 45.00 14.86 45.43 14.14 45.88 C7.23 49.50 0.42 48.29 -6.75 46.13 C-10.33 44.98 -13.69 43.78 -17 42 C-16.42 36.99 -14.78 32.82 -12.66 28.30 C-12.16 27.23 -12.16 27.23 -11.66 26.13 C-10.61 23.85 -9.56 21.58 -8.5 19.31 C-7.45 17.03 -6.39 14.75 -5.34 12.46 C-4.69 11.05 -4.03 9.63 -3.37 8.22 C-2.12 5.50 -0.95 2.84 0 0 Z " fill="#F8BB00" transform="translate(172,211)"/> <path d="M0 0 C5.94 13.2 11.88 26.4 18 40 C15.16 42.84 13.74 43.73 10.13 45.13 C9.28 45.46 8.44 45.79 7.57 46.13 C-0.03 48.70 -6.79 48.80 -14.24 45.95 C-16.20 44.89 -17.50 43.64 -19 42 C-18.03 40.02 -17.05 38.08 -15.93 36.18 C-13.04 31.08 -11.90 26.82 -13 21 C-14.16 17.75 -15.47 14.64 -16.91 11.50 C-18 9 -18 9 -18 7 C-15.57 5.83 -13.13 4.66 -10.69 3.5 C-10.00 3.17 -9.31 2.83 -8.60 2.49 C-3.34 0 -3.34 0 0 0 Z " fill="#F8BB00" transform="translate(429,211)"/> <path d="M0 0 C23.64 3.68 47.26 7.50 70.88 11.38 C71.57 11.49 72.27 11.60 72.99 11.72 C81.66 13.15 90.33 14.57 99 16 C93.58 22.66 93.58 22.66 89.88 24.31 C89.21 24.62 88.55 24.92 87.87 25.24 C80.38 28.29 73.72 26.70 66.16 24.88 C65.21 24.65 64.26 24.43 63.29 24.20 C60.21 23.47 57.14 22.74 54.06 22 C51.95 21.50 49.83 21.00 47.72 20.50 C30.78 16.47 13.87 12.31 -3 8 C-1.13 2.25 -1.13 2.25 0 0 Z " fill="#F8BB00" transform="translate(411,110)"/> <path d="M0 0 C4.17 -0.08 8.33 -0.17 12.63 -0.25 C13.93 -0.29 15.23 -0.32 16.57 -0.36 C27.30 -0.46 27.30 -0.46 32 4 C34.33 7.49 34.33 8.90 34 13 C32.89 15.99 31.35 17.86 29 20 C29.46 20.33 29.92 20.65 30.39 20.99 C32.81 24.02 33.09 27.46 33.69 31.19 C33.82 31.94 33.95 32.69 34.08 33.46 C34.40 35.30 34.70 37.15 35 39 C30.71 39 26.42 39 22 39 C21.34 34.38 20.68 29.76 20 25 C17.69 25 15.38 25 13 25 C12.67 29.62 12.34 34.24 12 39 C8.04 39 4.08 39 0 39 C0 26.13 0 13.26 0 0 Z M12 8 C12 10.64 12 13.28 12 16 C16.01 16.18 16.01 16.18 20 16 C20.66 15.34 21.32 14.68 22 14 C21.83 11.42 21.83 11.42 21 9 C18.04 7.52 15.26 7.94 12 8 Z " fill="#F8BB00" transform="translate(108,347)"/> <path d="M0 0 C4.62 2.70 7.85 6.24 9.56 11.38 C10.69 27.14 10.69 27.14 5.56 33.38 C0.87 37.94 -3.81 39.45 -10.25 39.75 C-16.30 39.60 -21.80 38.14 -26.07 33.66 C-31.06 26.91 -31.13 20.49 -30.44 12.38 C-28.88 6.99 -26.20 3.40 -21.44 0.38 C-14.79 -2.75 -6.76 -3.08 0 0 Z M-16.38 9.19 C-18.68 13.94 -18.96 18.18 -18.44 23.38 C-16.92 27.18 -16.92 27.18 -14.44 30.38 C-9.17 30.92 -9.17 30.92 -4.5 29.06 C-1.53 24.34 -1.97 18.74 -2.44 13.38 C-3.61 10.83 -4.50 9.31 -6.44 7.38 C-11.92 6.67 -11.92 6.67 -16.38 9.19 Z " fill="#F8BB00" transform="translate(93.44,347.63)"/> <path d="M0 0 C5.05 3.00 7.91 6.59 9.94 12.13 C11.15 18.14 10.43 23.95 8.38 29.69 C4.88 34.88 0.69 38.05 -5.44 39.38 C-13.03 40.17 -19.23 38.94 -25.25 34.13 C-30.10 28.02 -31.00 23.01 -30.79 15.32 C-30.11 9.68 -28.03 5.93 -24 2 C-16.82 -2.55 -7.88 -3.60 0 0 Z M-15.44 8.38 C-18.79 13.11 -19.20 17.76 -18.44 23.38 C-16.89 27.71 -16.89 27.71 -13.44 30.38 C-10.02 30.88 -10.02 30.88 -6.44 30.38 C-3.64 27.69 -2.53 26.05 -1.98 22.18 C-2.00 21.07 -2.03 19.96 -2.06 18.81 C-2.08 17.70 -2.09 16.58 -2.10 15.43 C-2.42 12.51 -2.79 10.79 -4.44 8.38 C-8.69 6.30 -11.38 5.74 -15.44 8.38 Z " fill="#F8BB00" transform="translate(310.44,347.63)"/> <path d="M0 0 C4.03 2.99 6.04 6.53 7.62 11.20 C8.46 18.85 8.38 25.90 3.62 32.20 C-1.00 36.94 -6.35 38.26 -12.82 38.52 C-18.05 38.36 -22.95 37.41 -26.92 33.81 C-31.96 27.99 -33.75 22.36 -33.21 14.71 C-32.27 8.46 -30.26 4.28 -25.38 0.20 C-17.78 -4.51 -7.73 -4.56 0 0 Z M-18.32 7.52 C-21.29 12.24 -20.85 17.83 -20.38 23.20 C-19.21 25.75 -18.32 27.27 -16.38 29.20 C-13.53 29.43 -11.18 29.62 -8.38 29.20 C-5.65 26.65 -4.55 23.89 -4.18 20.15 C-4.07 15.04 -4.59 11.67 -7.38 7.20 C-8.61 5.76 -8.61 5.76 -12.26 5.95 C-15.50 5.98 -15.50 5.98 -18.32 7.52 Z " fill="#F8BB00" transform="translate(217.38,348.80)"/> <path d="M0 0 C0.66 0 1.32 0 2 0 C2 0.66 2 1.32 2 2 C2.58 2.27 3.16 2.55 3.76 2.83 C5.98 3.99 7.90 5.28 9.91 6.77 C10.67 7.32 11.42 7.87 12.19 8.44 C13.00 9.04 13.80 9.64 14.63 10.25 C15.46 10.87 16.30 11.49 17.16 12.13 C23.74 17.01 30.23 22.02 36.68 27.07 C42.72 31.80 48.83 36.43 55 41 C53.76 44.19 52.42 47.26 50.88 50.31 C50.52 51.01 50.17 51.71 49.80 52.43 C49.54 52.95 49.27 53.46 49 54 C45.57 52.40 42.51 50.42 39.37 48.32 C38.83 47.96 38.29 47.60 37.73 47.23 C34.74 45.24 31.77 43.24 28.80 41.22 C27.58 40.40 26.35 39.57 25.13 38.75 C24.53 38.34 23.92 37.93 23.30 37.51 C19.59 35.02 15.84 32.67 11.99 30.41 C-0.35 22.99 -0.35 22.99 -2.19 17.34 C-2.25 13.66 -1.84 10.57 -1 7 C-0.82 5.54 -0.65 4.08 -0.5 2.63 C-0.34 1.76 -0.17 0.89 0 0 Z " fill="#F8BB00" transform="translate(243,136)"/> <path d="M0 0 C4.00 -0.08 8.00 -0.17 12.13 -0.25 C13.38 -0.29 14.63 -0.32 15.91 -0.36 C22.23 -0.42 26.29 -0.41 31 4 C33.51 7.77 33.53 9.53 33 14 C31.54 16.33 29.94 18.01 28 20 C28.47 20.41 28.94 20.81 29.43 21.23 C31.25 23.28 31.61 24.58 32.13 27.25 C32.28 28.04 32.43 28.83 32.59 29.64 C33.13 32.75 33.60 35.86 34 39 C29.71 39 25.42 39 21 39 C20.34 34.38 19.68 29.76 19 25 C16.36 24.67 13.72 24.34 11 24 C11 28.95 11 33.9 11 39 C7.37 39 3.74 39 0 39 C0 26.13 0 13.26 0 0 Z M11 8 C11 10.64 11 13.28 11 16 C15.01 16.18 15.01 16.18 19 16 C19.66 15.34 20.32 14.68 21 14 C20.83 11.42 20.83 11.42 20 9 C17.04 7.52 14.26 7.94 11 8 Z " fill="#F8BB00" transform="translate(326,347)"/> <path d="M0 0 C0.95 0.21 1.89 0.42 2.87 0.64 C12.76 2.84 22.66 5.03 32.56 7.20 C35.84 7.92 39.12 8.64 42.40 9.36 C45.78 10.11 49.17 10.85 52.55 11.59 C55.24 12.18 57.92 12.77 60.61 13.36 C63.11 13.91 65.62 14.46 68.13 15.01 C69.25 15.25 70.37 15.50 71.53 15.76 C73.01 16.08 73.01 16.08 74.52 16.41 C77 17 77 17 80 18 C79.67 21.96 79.34 25.92 79 30 C70.82 29.37 63.01 27.86 55.00 26.09 C53.68 25.81 52.36 25.52 51.03 25.23 C48.28 24.63 45.53 24.03 42.78 23.43 C39.25 22.65 35.72 21.88 32.20 21.12 C28.82 20.38 25.44 19.64 22.07 18.91 C20.80 18.63 19.54 18.35 18.23 18.07 C17.06 17.81 15.89 17.56 14.69 17.29 C13.66 17.07 12.63 16.84 11.57 16.61 C9 16 9 16 6 15 C4.39 12.13 4.39 12.13 2.81 8.56 C2.28 7.39 1.75 6.21 1.21 5.00 C0 2 0 2 0 0 Z " fill="#F8BB00" transform="translate(298,158)"/> <path d="M0 0 C1.52 1.17 1.52 1.17 3.52 4.17 C3.52 6.15 3.52 8.13 3.52 10.17 C-0.44 10.17 -4.40 10.17 -8.48 10.17 C-8.81 9.18 -9.14 8.19 -9.48 7.17 C-11.39 6.33 -11.39 6.33 -13.48 6.17 C-14.47 6.66 -14.47 6.66 -15.48 7.17 C-15.48 8.16 -15.48 9.15 -15.48 10.17 C-14.45 10.47 -13.43 10.77 -12.37 11.09 C-11.01 11.51 -9.65 11.93 -8.29 12.36 C-7.62 12.55 -6.94 12.75 -6.25 12.95 C-1.54 14.44 1.29 16.27 4.52 20.17 C5.86 24.01 5.61 25.87 4.46 29.79 C1.90 34.26 -0.90 36.33 -5.79 37.92 C-12.74 38.56 -19.29 38.91 -25.48 35.17 C-29.03 31.08 -29.48 29.71 -29.48 24.17 C-25.52 24.17 -21.56 24.17 -17.48 24.17 C-16.82 25.49 -16.16 26.81 -15.48 28.17 C-13.17 28.17 -10.86 28.17 -8.48 28.17 C-8.48 26.85 -8.48 25.53 -8.48 24.17 C-10.01 23.71 -10.01 23.71 -11.58 23.25 C-12.94 22.83 -14.30 22.40 -15.66 21.98 C-16.34 21.78 -17.01 21.59 -17.71 21.38 C-22.41 19.89 -25.27 18.08 -28.48 14.17 C-29.78 10.03 -29.86 7.28 -27.98 3.42 C-26.05 0.52 -24.03 -1.23 -20.66 -2.39 C-13.32 -3.86 -6.60 -3.64 0 0 Z " fill="#F8BB00" transform="translate(428.48,348.83)"/> <path d="M0 0 C1.93 0.02 1.93 0.02 3.90 0.04 C5.19 0.04 6.48 0.05 7.81 0.06 C8.81 0.07 9.81 0.09 10.84 0.10 C12.33 3.76 13.83 7.42 15.32 11.08 C16.07 12.93 16.83 14.78 17.58 16.62 C18.55 19.00 19.51 21.37 20.48 23.75 C21.35 25.88 22.22 28.01 23.09 30.14 C23.46 31.04 23.82 31.93 24.20 32.86 C24.68 34.02 24.68 34.02 25.17 35.21 C25.84 37.10 25.84 37.10 25.84 39.10 C21.55 39.10 17.26 39.10 12.84 39.10 C11.85 36.79 10.86 34.48 9.84 32.10 C5.22 32.10 0.60 32.10 -4.16 32.10 C-4.82 34.41 -5.48 36.72 -6.16 39.10 C-10.12 39.10 -14.08 39.10 -18.16 39.10 C-17.26 34.60 -15.94 30.65 -14.25 26.43 C-13.97 25.70 -13.68 24.98 -13.39 24.23 C-12.79 22.71 -12.19 21.19 -11.59 19.68 C-10.66 17.34 -9.74 15.01 -8.82 12.67 C-8.24 11.19 -7.65 9.72 -7.07 8.24 C-6.79 7.54 -6.51 6.84 -6.23 6.11 C-3.84 0.12 -3.84 0.12 0 0 Z M2.84 10.10 C2.17 11.89 1.50 13.68 0.84 15.47 C0.47 16.47 0.10 17.47 -0.29 18.50 C-1.27 20.96 -1.27 20.96 -1.16 23.10 C1.48 23.10 4.12 23.10 6.84 23.10 C6.56 21.68 6.26 20.26 5.96 18.85 C5.80 18.06 5.64 17.27 5.47 16.46 C4.85 14.13 3.99 12.21 2.84 10.10 Z " fill="#F8BB00" transform="translate(487.16,346.90)"/> <path d="M0 0 C10.23 0 20.46 0 31 0 C31 2.64 31 5.28 31 8 C24.73 8 18.46 8 12 8 C12 10.31 12 12.62 12 15 C17.61 15 23.22 15 29 15 C29 17.97 29 20.94 29 24 C23.72 24 18.44 24 13 24 C13 25.98 13 27.96 13 30 C18.94 30 24.88 30 31 30 C31 32.97 31 35.94 31 39 C20.77 39 10.54 39 0 39 C0 26.13 0 13.26 0 0 Z " fill="#F8BB00" transform="translate(364,347)"/> <path d="M0 0 C9.32 2.22 18.51 4.85 27.69 7.60 C29.16 8.04 30.64 8.48 32.11 8.92 C35.18 9.83 38.25 10.74 41.31 11.66 C45.23 12.83 49.16 14.00 53.09 15.17 C56.12 16.07 59.16 16.98 62.19 17.88 C63.64 18.32 65.09 18.75 66.54 19.18 C68.55 19.78 70.57 20.38 72.59 20.98 C73.73 21.33 74.88 21.67 76.06 22.02 C78.53 22.84 80.72 23.75 83 25 C77.36 29.96 70.68 33.40 63 33 C52.41 30.55 42.24 26.11 32.16 22.14 C29.44 21.06 26.72 20.00 23.99 18.93 C14.95 15.39 5.94 11.80 -3 8 C-2.69 7.24 -2.38 6.47 -2.06 5.69 C-1.32 3.81 -0.64 1.91 0 0 Z " fill="#F8BB00" transform="translate(404,121)"/> <path d="M0 0 C9.9 0 19.8 0 30 0 C30 2.64 30 5.28 30 8 C24.06 8 18.12 8 12 8 C12 10.31 12 12.62 12 15 C17.61 15 23.22 15 29 15 C29 17.97 29 20.94 29 24 C23.72 24 18.44 24 13 24 C12.67 25.98 12.34 27.96 12 30 C17.94 30 23.88 30 30 30 C30 32.97 30 35.94 30 39 C20.1 39 10.2 39 0 39 C0 26.13 0 13.26 0 0 Z " fill="#F8BB00" transform="translate(549,347)"/> <path d="M0 0 C4.21 -0.12 8.42 -0.19 12.63 -0.25 C14.41 -0.30 14.41 -0.30 16.23 -0.35 C27.25 -0.47 27.25 -0.47 32 4 C35.11 8.31 35.42 11.78 34.65 16.88 C33.63 20.23 31.73 21.92 29 24 C23.57 25.81 17.67 25.05 12 25 C12 29.62 12 34.24 12 39 C3.50 39.10 3.50 39.10 1 39 C0 38 0 38 -0.11 34.40 C-0.11 32.80 -0.11 31.19 -0.10 29.59 C-0.10 28.75 -0.09 27.91 -0.09 27.04 C-0.09 24.34 -0.08 21.64 -0.06 18.94 C-0.06 17.11 -0.05 15.29 -0.05 13.46 C-0.04 8.97 -0.02 4.49 0 0 Z M12 8 C12 10.97 12 13.94 12 17 C16.01 17.18 16.01 17.18 20 17 C22.24 15.17 22.24 15.17 22.31 12.5 C22.21 11.68 22.11 10.85 22 10 C18.36 7.57 16.29 7.84 12 8 Z " fill="#F8BB00" transform="translate(147,347)"/> <path d="M0 0 C3.14 1.90 4.74 3.94 6.73 7.05 C6.73 8.70 6.73 10.35 6.73 12.05 C2.77 12.05 -1.19 12.05 -5.27 12.05 C-5.93 10.73 -6.59 9.41 -7.27 8.05 C-8.55 7.99 -9.83 7.92 -11.15 7.86 C-11.87 7.82 -12.59 7.79 -13.33 7.75 C-13.97 7.85 -14.61 7.95 -15.27 8.05 C-17.69 11.67 -17.57 14.36 -17.52 18.55 C-17.53 19.22 -17.54 19.90 -17.55 20.60 C-17.53 24.30 -17.38 25.89 -15.27 29.05 C-13.07 29.41 -13.07 29.41 -10.65 29.23 C-9.83 29.21 -9.01 29.18 -8.17 29.15 C-7.23 29.10 -7.23 29.10 -6.27 29.05 C-5.94 27.73 -5.61 26.41 -5.27 25.05 C-1.31 25.05 2.65 25.05 6.73 25.05 C6.27 29.92 5.36 32.69 1.73 36.05 C-5.37 39.60 -12.96 40.31 -20.52 37.92 C-24.61 36.18 -26.83 33.78 -29.27 30.05 C-32.31 22.39 -32.16 14.74 -29.32 7.06 C-23.88 -3.39 -9.78 -4.26 0 0 Z " fill="#F8BB00" transform="translate(52.27,347.95)"/> <path d="M0 0 C13.32 2.78 26.62 5.63 39.92 8.52 C43.05 9.20 46.18 9.88 49.31 10.55 C51.31 10.99 53.31 11.42 55.31 11.86 C56.24 12.06 57.17 12.26 58.13 12.46 C58.99 12.65 59.85 12.84 60.74 13.03 C61.49 13.20 62.24 13.36 63.02 13.53 C65 14 65 14 68 15 C67.67 19.29 67.34 23.58 67 28 C56.10 26.35 45.37 23.99 34.61 21.63 C31.41 20.93 28.22 20.24 25.03 19.54 C23.00 19.10 20.97 18.66 18.93 18.21 C17.98 18.01 17.03 17.80 16.05 17.59 C14.72 17.30 14.72 17.30 13.37 17.00 C12.21 16.75 12.21 16.75 11.03 16.49 C6.20 15.33 6.20 15.33 4.39 12.38 C3.87 11.31 3.35 10.23 2.81 9.13 C2.28 8.06 1.75 6.99 1.21 5.88 C0 3 0 3 0 0 Z " fill="#F8BB00" transform="translate(307,177)"/> <path d="M0 0 C18.76 3.62 37.38 7.72 56 12 C56 12.66 56 13.32 56 14 C52.39 15.48 48.79 16.95 45.18 18.43 C43.37 19.17 41.55 19.91 39.74 20.65 C33.77 23.09 27.79 25.50 21.79 27.86 C20.75 28.27 19.71 28.69 18.63 29.11 C16 30 16 30 13 30 C11.14 26.05 9.29 22.10 7.45 18.15 C6.82 16.80 6.19 15.46 5.55 14.11 C4.65 12.18 3.74 10.25 2.84 8.32 C2.03 6.58 2.03 6.58 1.19 4.80 C0 2 0 2 0 0 Z " fill="#F8BB00" transform="translate(316,196)"/> <path d="M0 0 C22.04 1.61 44.01 3.81 66 6 C65.98 6.59 65.95 7.18 65.93 7.79 C65.83 12.34 65.86 15.86 68 20 C59.66 19.40 51.33 18.72 43 18 C41.82 17.90 40.64 17.80 39.43 17.69 C35.97 17.38 32.52 17.04 29.06 16.69 C28.00 16.59 26.95 16.50 25.86 16.41 C17.39 15.49 10.58 12.99 4 7.5 C2.02 5.03 1.10 2.94 0 0 Z " fill="#F8BB00" transform="translate(63,61)"/> <path d="M0 0 C4.17 0.57 7.69 1.53 11.56 3.19 C13.16 3.87 13.16 3.87 14.78 4.57 C15.92 5.06 17.05 5.55 18.22 6.06 C20.02 6.83 21.82 7.60 23.62 8.37 C26.13 9.45 28.64 10.53 31.15 11.61 C34.32 12.98 37.49 14.34 40.66 15.70 C44.22 17.23 47.79 18.76 51.35 20.29 C52.42 20.75 53.48 21.21 54.57 21.68 C55.50 22.08 56.43 22.48 57.39 22.89 C59.91 23.96 62.45 24.99 65 26 C64 29 64 29 62.03 30.17 C61.20 30.50 60.36 30.84 59.5 31.19 C58.28 31.70 58.28 31.70 57.03 32.23 C48.25 34.46 42.21 32.28 34.31 28.25 C33.33 27.76 32.34 27.28 31.33 26.77 C6.72 14.48 6.72 14.48 -3 8 C-2.37 5.07 -1.41 2.64 0 0 Z " fill="#F8BB00" transform="translate(397,133)"/> <path d="M0 0 C2.11 2.12 2.11 2.12 4.19 4.88 C7.33 8.90 10.53 12.75 14 16.5 C18.10 20.96 21.95 25.56 25.75 30.28 C28.81 33.98 32.06 37.50 35.35 41.00 C37 43 37 43 37 45 C31.89 46.42 27.33 47.34 22 47 C17.96 44.04 15.70 40.16 13 36 C11.53 34.30 10.03 32.63 8.5 31 C4.61 26.73 0.97 22.31 -2.65 17.82 C-5.97 13.84 -9.48 10.08 -13.03 6.31 C-15 4 -15 4 -16 1 C-14.27 0.63 -12.54 0.28 -10.81 -0.06 C-9.37 -0.36 -9.37 -0.36 -7.89 -0.66 C-4.82 -1.02 -2.92 -1.05 0 0 Z " fill="#F8BB00" transform="translate(369,42)"/> <path d="M0 0 C6.27 0 12.54 0 19 0 C19 7.29 18.95 7.93 14.5 12.94 C13.66 13.90 12.83 14.85 11.97 15.84 C11.32 16.55 10.67 17.27 10 18 C11.17 18.07 11.17 18.07 12.37 18.15 C13.38 18.22 14.39 18.30 15.44 18.38 C16.45 18.44 17.46 18.51 18.50 18.59 C19.32 18.72 20.15 18.86 21 19 C21.33 19.66 21.66 20.32 22 21 C24.64 14.07 27.28 7.14 30 0 C33.3 0 36.6 0 40 0 C41.51 3.60 43.01 7.21 44.5 10.81 C44.93 11.84 45.36 12.86 45.80 13.92 C46.21 14.90 46.61 15.88 47.03 16.89 C47.41 17.80 47.79 18.71 48.17 19.64 C49 22 49 22 49 25 C46.36 25 43.72 25 41 25 C40.77 24.36 40.53 23.71 40.29 23.05 C39.19 20.79 39.19 20.79 36.84 20.39 C35.62 20.32 35.62 20.32 34.38 20.25 C33.56 20.19 32.74 20.14 31.90 20.08 C31.27 20.05 30.65 20.03 30 20 C29.67 21.65 29.34 23.3 29 25 C19.1 25 9.2 25 -1 25 C-1 18.25 -1 18.25 1.41 15.79 C1.90 15.27 2.40 14.74 2.91 14.21 C3.43 13.68 3.96 13.16 4.5 12.63 C5.02 12.08 5.55 11.53 6.09 10.97 C7.38 9.64 8.69 8.32 10 7 C6.7 6.67 3.4 6.34 0 6 C0 4.02 0 2.04 0 0 Z M34 8 C33.34 10.31 32.68 12.62 32 15 C33.65 15 35.3 15 37 15 C36.66 12.03 36.66 12.03 36 9 C35.34 8.67 34.68 8.34 34 8 Z " fill="#F8BB00" transform="translate(269,404)"/> <path d="M0 0 C2.26 2.12 2.26 2.12 4.69 4.88 C5.34 5.61 5.34 5.61 6.01 6.37 C9.68 10.54 13.16 14.85 16.64 19.18 C19.21 22.25 21.89 25.19 24.63 28.13 C29.05 32.87 33.14 37.78 37 43 C31.64 44.79 26.64 45.84 21 45 C17.16 41.93 14.76 38.02 12 34 C10.36 32.14 8.70 30.30 7 28.5 C2.84 23.97 -1.10 19.31 -4.95 14.52 C-6.78 12.27 -8.68 10.14 -10.63 8 C-11.41 7.01 -12.19 6.02 -13 5 C-12 2 -12 2 -10.29 1.02 C-9.60 0.76 -8.90 0.51 -8.19 0.25 C-7.16 -0.14 -7.16 -0.14 -6.11 -0.55 C-3.54 -1.10 -2.41 -1.05 0 0 Z " fill="#F8BB00" transform="translate(350,46)"/> <path d="M0 0 C9.24 0 18.48 0 28 0 C28 2.64 28 5.28 28 8 C22.39 8 16.78 8 11 8 C11 10.64 11 13.28 11 16 C16.28 16 21.56 16 27 16 C27 18.97 27 21.94 27 25 C22.05 25 17.1 25 12 25 C11.67 29.62 11.34 34.24 11 39 C7.37 39 3.74 39 0 39 C0 26.13 0 13.26 0 0 Z " fill="#F8BB00" transform="translate(249,347)"/> <path d="M0 0 C0.66 0 1.32 0 2 0 C2 0.66 2 1.32 2 2 C3.11 2.41 3.11 2.41 4.24 2.83 C6.82 3.92 8.92 5.13 11.24 6.71 C12.04 7.25 12.84 7.79 13.67 8.34 C14.51 8.92 15.36 9.50 16.24 10.10 C17.12 10.70 18.00 11.29 18.91 11.91 C21.71 13.81 24.51 15.72 27.31 17.63 C29.22 18.92 31.12 20.21 33.03 21.5 C37.69 24.66 42.34 27.83 47 31 C45.71 35.04 44.31 38.43 42 42 C38.89 41.37 36.64 40.33 33.97 38.64 C33.19 38.15 32.40 37.66 31.60 37.15 C28.07 34.88 24.55 32.61 21.04 30.31 C19.18 29.10 17.32 27.91 15.44 26.73 C12.74 25.03 10.06 23.29 7.39 21.53 C6.55 21.01 5.71 20.49 4.84 19.96 C-0.72 16.22 -0.72 16.22 -1.53 12.71 C-1.55 10.40 -1.38 8.28 -1 6 C-0.83 4.82 -0.67 3.65 -0.5 2.44 C-0.34 1.63 -0.17 0.83 0 0 Z " fill="#F8BB00" transform="translate(242,162)"/> <path d="M0 0 C1.51 1.62 1.51 1.62 3.13 3.88 C5.73 7.38 8.43 10.66 11.38 13.88 C15.35 18.23 19.08 22.73 22.78 27.31 C25.60 30.72 28.56 33.98 31.57 37.22 C33 39 33 39 33 41 C31.35 41.27 29.71 41.54 28.05 41.73 C26.08 41.99 24.13 42.37 22.19 42.75 C19.03 42.71 18.03 42.03 15.59 39.93 C12.93 37.05 10.44 34.06 8 31 C7.23 30.07 6.47 29.13 5.68 28.17 C4.19 26.36 2.71 24.54 1.24 22.71 C-1.75 19.10 -4.93 15.69 -8.15 12.29 C-10.05 9.93 -11.04 7.85 -12 5 C-10.57 4.16 -9.13 3.33 -7.69 2.5 C-6.89 2.04 -6.09 1.57 -5.26 1.09 C-3 0 -3 0 0 0 Z " fill="#F8BB00" transform="translate(333,51)"/> <path d="M0 0 C3.96 0 7.92 0 12 0 C12.99 3.63 13.98 7.26 15 11 C15.29 10.11 15.58 9.23 15.88 8.31 C16.83 5.51 17.90 2.75 19 0 C22.63 0 26.26 0 30 0 C30 8.25 30 16.5 30 25 C27.69 25 25.38 25 23 25 C22.67 21.37 22.34 17.74 22 14 C21.01 17.63 20.02 21.26 19 25 C16.36 25 13.72 25 11 25 C10.01 21.04 9.02 17.08 8 13 C7.67 16.96 7.34 20.92 7 25 C4.69 25 2.38 25 0 25 C0 16.75 0 8.5 0 0 Z " fill="#F8BB00" transform="translate(359,404)"/> <path d="M0 0 C11.55 0 23.1 0 35 0 C35 2.64 35 5.28 35 8 C31.04 8 27.08 8 23 8 C23 18.23 23 28.46 23 39 C19.37 39 15.74 39 12 39 C10.55 36.10 10.99 33.69 11.12 30.46 C11.17 29.16 11.22 27.86 11.27 26.52 C11.32 25.14 11.38 23.76 11.44 22.38 C11.49 20.99 11.54 19.60 11.60 18.21 C11.73 14.81 11.86 11.40 12 8 C8.04 8 4.08 8 0 8 C0 5.36 0 2.72 0 0 Z " fill="#F8BB00" transform="translate(436,347)"/> <path d="M0 0 C3.96 0 7.92 0 12 0 C12.33 9.9 12.66 19.8 13 30 C18.28 30 23.56 30 29 30 C29 32.97 29 35.94 29 39 C19.43 39 9.86 39 0 39 C0 26.13 0 13.26 0 0 Z " fill="#F8BB00" transform="translate(516,347)"/> <path d="M0 0 C3.15 0.65 5.65 1.75 8.46 3.30 C9.34 3.78 10.21 4.26 11.11 4.75 C12.04 5.26 12.98 5.78 13.94 6.31 C14.90 6.84 15.86 7.37 16.85 7.91 C26.97 13.49 36.99 19.23 47 25 C47 25.66 47 26.32 47 27 C40.23 29.81 32.36 32.08 25.22 29.31 C19.53 26.61 14.45 23.04 9.31 19.44 C2.29 14.51 2.29 14.51 -5 10 C-3.67 6.41 -2.04 3.25 0 0 Z " fill="#F8BB00" transform="translate(390,145)"/> <path d="M0 0 C0.67 1.29 1.34 2.58 2 3.88 C2.37 4.59 2.74 5.31 3.13 6.05 C4 8 4 8 4 10 C2.79 10.52 2.79 10.52 1.56 11.05 C-2.21 12.68 -5.98 14.31 -9.75 15.94 C-10.77 16.38 -10.77 16.38 -11.81 16.83 C-21.33 20.94 -30.82 25.11 -40.23 29.46 C-45.79 32 -45.79 32 -48 32 C-48.99 28.37 -49.98 24.74 -51 21 C-43.89 17.95 -36.78 14.91 -29.67 11.86 C-28.90 11.53 -28.13 11.20 -27.34 10.86 C-25.80 10.20 -24.26 9.54 -22.71 8.88 C-19.07 7.32 -15.43 5.75 -11.80 4.17 C-11.15 3.89 -10.50 3.61 -9.83 3.32 C-8.09 2.56 -6.35 1.80 -4.61 1.04 C-2 0 -2 0 0 0 Z " fill="#F8BB00" transform="translate(265,266)"/> <path d="M0 0 C6.02 1.90 11.79 4.10 17.54 6.69 C18.32 7.03 19.09 7.38 19.88 7.73 C21.50 8.45 23.12 9.17 24.73 9.90 C27.19 11.00 29.65 12.10 32.12 13.20 C33.70 13.90 35.28 14.61 36.86 15.31 C37.58 15.64 38.31 15.96 39.06 16.30 C43.09 18.11 47.06 19.99 51 22 C50.49 25.76 49.78 28.67 48 32 C41.56 29.97 35.37 27.57 29.19 24.88 C27.85 24.29 27.85 24.29 26.48 23.70 C24.60 22.88 22.73 22.07 20.86 21.25 C17.98 19.99 15.10 18.75 12.22 17.52 C10.40 16.72 8.57 15.92 6.75 15.13 C5.89 14.76 5.02 14.39 4.13 14.01 C3.34 13.66 2.55 13.31 1.73 12.95 C1.04 12.64 0.34 12.34 -0.38 12.02 C-2 11 -2 11 -3 8 C-2.24 5.24 -1.09 2.65 0 0 Z " fill="#F8BB00" transform="translate(336,265)"/> <path d="M0 0 C2.73 1.31 5.25 2.75 7.76 4.43 C8.48 4.91 9.20 5.39 9.94 5.89 C10.71 6.40 11.48 6.92 12.27 7.45 C13.46 8.24 13.46 8.24 14.67 9.05 C17.20 10.74 19.72 12.43 22.25 14.13 C23.97 15.27 25.68 16.42 27.40 17.57 C31.60 20.38 35.80 23.19 40 26 C38.35 29.63 36.7 33.26 35 37 C30.62 35.90 27.55 33.96 23.86 31.48 C22.84 30.81 22.84 30.81 21.80 30.11 C20.37 29.15 18.94 28.19 17.51 27.23 C15.32 25.75 13.12 24.30 10.91 22.86 C9.52 21.92 8.13 20.98 6.74 20.05 C6.08 19.62 5.42 19.19 4.74 18.74 C1.95 16.83 0.21 15.60 -0.93 12.35 C-1.01 9.74 -0.87 7.28 -0.56 4.69 C-0.46 3.80 -0.36 2.92 -0.25 2.01 C-0.17 1.35 -0.09 0.68 0 0 Z " fill="#F8BB00" transform="translate(241,182)"/> <path d="M0 0 C2.84 1.40 4.19 3.35 6.12 5.86 C9.35 9.95 12.65 13.89 16.18 17.73 C26.99 29.52 26.99 29.52 26.99 31.98 C27.65 31.98 28.31 31.98 28.99 31.98 C28.99 32.64 28.99 33.30 28.99 33.98 C23.88 35.40 19.32 36.31 13.99 35.98 C9.96 33.04 7.71 29.12 4.99 24.98 C3.28 23.01 1.53 21.07 -0.26 19.17 C-10.01 8.54 -10.01 8.54 -10.01 5.98 C-8.40 4.44 -8.40 4.44 -6.26 2.79 C-5.56 2.24 -4.87 1.69 -4.15 1.13 C-2.01 -0.02 -2.01 -0.02 0 0 Z " fill="#F8BB00" transform="translate(317.01,60.02)"/> <path d="M0 0 C3.63 0 7.26 0 11 0 C12.98 4.29 14.96 8.58 17 13 C17.33 8.71 17.66 4.42 18 0 C20.31 0 22.62 0 25 0 C25 8.25 25 16.5 25 25 C21.37 25 17.74 25 14 25 C12.35 21.04 10.7 17.08 9 13 C8.67 16.96 8.34 20.92 8 25 C5.36 25 2.72 25 0 25 C0 16.75 0 8.5 0 0 Z M7 9 C8 11 8 11 8 11 Z " fill="#F8BB00" transform="translate(241,404)"/> <path d="M0 0 C3.63 0 7.26 0 11 0 C12.98 4.62 14.96 9.24 17 14 C17.33 9.38 17.66 4.76 18 0 C20.31 0 22.62 0 25 0 C25 8.25 25 16.5 25 25 C21.37 25 17.74 25 14 25 C12.02 20.38 10.04 15.76 8 11 C7.67 15.62 7.34 20.24 7 25 C4.69 25 2.38 25 0 25 C0 16.75 0 8.5 0 0 Z " fill="#F8BB00" transform="translate(451,404)"/> <path d="M0 0 C3.06 2.31 3.06 2.31 5 5 C5 6.32 5 7.64 5 9 C2.36 8.67 -0.28 8.34 -3 8 C-3 7.34 -3 6.68 -3 6 C-5.92 5.83 -5.92 5.83 -9 6 C-11.43 8.00 -11.43 8.00 -11.31 11.94 C-11.24 14.52 -11.17 15.72 -9.81 17.94 C-7.58 19.25 -5.56 19.65 -3 20 C-3 18.68 -3 17.36 -3 16 C-4.65 16 -6.3 16 -8 16 C-8 14.02 -8 12.04 -8 10 C-3.71 10 0.58 10 5 10 C5 14.62 5 19.24 5 24 C1.90 25.55 -1.35 25.31 -4.75 25.38 C-5.45 25.41 -6.16 25.45 -6.88 25.49 C-10.81 25.55 -13.28 25.19 -16.42 22.72 C-19.75 19.21 -20.71 16.76 -21 12 C-20.41 7.62 -19.40 5.03 -16.13 2.13 C-10.87 -1.45 -6.10 -1.60 0 0 Z " fill="#F8BB00" transform="translate(173,404)"/> <path d="M0 0 C2.52 -0.06 5.03 -0.12 7.63 -0.19 C8.80 -0.23 8.80 -0.23 9.99 -0.27 C14.73 -0.33 17.88 0.42 22 3 C25.20 6.63 25.52 10.11 25.35 14.78 C24.79 18.31 23.36 20.38 21 23 C16.68 25.34 12.47 25.24 7.69 25.13 C3.88 25.06 3.88 25.06 0 25 C0 16.75 0 8.5 0 0 Z M8 6 C8 10.29 8 14.58 8 19 C13.64 19.63 13.64 19.63 15.94 17.44 C17.45 13.98 16.87 11.61 16 8 C15.34 7.34 14.68 6.68 14 6 C12.02 6 10.04 6 8 6 Z " fill="#F8BB00" transform="translate(65,404)"/> <path d="M0 0 C3.81 -0.12 3.81 -0.12 7.69 -0.25 C8.87 -0.30 8.87 -0.30 10.08 -0.36 C13.89 -0.42 15.66 -0.21 18.99 1.86 C21 4 21 4 21.5 6.5 C20.93 9.36 19.92 10.84 18 13 C18.99 13.33 19.98 13.66 21 14 C21.81 16.69 21.81 16.69 22 20 C20.01 22.76 18.45 24.71 14.99 25.40 C12.70 25.49 10.48 25.44 8.19 25.31 C4.13 25.16 4.13 25.16 0 25 C0 16.75 0 8.5 0 0 Z M8 6 C8.33 7.32 8.66 8.64 9 10 C10.32 9.67 11.64 9.34 13 9 C13 8.01 13 7.02 13 6 C11.35 6 9.7 6 8 6 Z M8 15 C8 16.32 8 17.64 8 19 C9.65 19 11.3 19 13 19 C13 17.68 13 16.36 13 15 C11.35 15 9.7 15 8 15 Z " fill="#F8BB00" transform="translate(393,404)"/> <path d="M0 0 C3 6.63 3 6.63 3 10 C-1.32 11.98 -5.64 13.96 -9.97 15.93 C-11.44 16.60 -12.91 17.27 -14.38 17.94 C-16.49 18.91 -18.61 19.88 -20.73 20.84 C-21.71 21.29 -21.71 21.29 -22.71 21.75 C-26.12 23.29 -29.29 24.45 -33 25 C-36.01 18.74 -36.01 18.74 -35.97 16.10 C-34.41 12.73 -31.27 11.91 -28.01 10.55 C-27.31 10.24 -26.60 9.94 -25.88 9.62 C-24.40 8.98 -22.91 8.35 -21.42 7.72 C-19.13 6.75 -16.86 5.77 -14.59 4.78 C-13.15 4.16 -11.70 3.54 -10.26 2.92 C-9.58 2.63 -8.90 2.33 -8.19 2.03 C-5.29 0.81 -3.18 0 0 0 Z " fill="#F8BB00" transform="translate(404,207)"/> <path d="M0 0 C7.54 2.37 14.75 5.30 22 8.44 C23.14 8.92 24.29 9.39 25.46 9.88 C26.55 10.35 27.63 10.82 28.75 11.31 C29.73 11.73 30.72 12.15 31.73 12.58 C34 14 34 14 34.86 16.05 C35.11 19.50 33.48 21.93 32 25 C24.03 22.55 16.53 19.24 8.94 15.81 C7.68 15.25 6.42 14.68 5.16 14.12 C2.10 12.75 -0.95 11.38 -4 10 C-3.52 8.52 -3.04 7.04 -2.56 5.56 C-2.30 4.74 -2.03 3.92 -1.75 3.07 C-1 1 -1 1 0 0 Z " fill="#F8BB00" transform="translate(198,207)"/> <path d="M0 0 C6.6 0 13.2 0 20 0 C20 1.98 20 3.96 20 6 C16.04 6 12.08 6 8 6 C8.33 6.99 8.66 7.98 9 9 C12.3 9 15.6 9 19 9 C19 10.98 19 12.96 19 15 C15.37 15 11.74 15 8 15 C8 16.32 8 17.64 8 19 C11.96 19 15.92 19 20 19 C20 20.98 20 22.96 20 25 C13.4 25 6.8 25 0 25 C0 16.75 0 8.5 0 0 Z " fill="#F8BB00" transform="translate(31,404)"/> <path d="M0 0 C2.97 0 5.94 0 9 0 C11.75 5.17 14.07 10.45 16.25 15.88 C16.52 16.54 16.79 17.21 17.07 17.89 C19 22.75 19 22.75 19 25 C16.03 25 13.06 25 10 25 C9.51 22.52 9.51 22.52 9 20 C6.03 20.33 3.06 20.66 0 21 C-0.33 22.32 -0.66 23.64 -1 25 C-3.64 25 -6.28 25 -9 25 C-8.39 21.51 -7.48 18.41 -6.15 15.14 C-5.62 13.81 -5.62 13.81 -5.07 12.45 C-4.51 11.08 -4.51 11.08 -3.94 9.69 C-3.56 8.76 -3.18 7.82 -2.79 6.87 C-1.87 4.58 -0.94 2.29 0 0 Z M4 7 C3.34 9.64 2.68 12.28 2 15 C3.65 15 5.3 15 7 15 C6.34 12.36 5.68 9.72 5 7 C4.67 7 4.34 7 4 7 Z " fill="#F8BB00" transform="translate(221,404)"/> <path d="M0 0 C1.24 0.02 1.24 0.02 2.50 0.04 C3.32 0.04 4.15 0.05 5 0.06 C5.64 0.07 6.28 0.09 6.93 0.10 C8.44 3.70 9.94 7.30 11.43 10.91 C11.86 11.93 12.29 12.96 12.73 14.01 C13.34 15.49 13.34 15.49 13.96 16.99 C14.34 17.90 14.72 18.80 15.11 19.74 C15.93 22.10 15.93 22.10 15.93 25.10 C13.29 25.10 10.65 25.10 7.93 25.10 C7.70 24.45 7.46 23.81 7.22 23.14 C6.12 20.89 6.12 20.89 3.77 20.49 C2.55 20.42 2.55 20.42 1.31 20.35 C0.49 20.29 -0.33 20.23 -1.17 20.18 C-2.11 20.14 -2.11 20.14 -3.07 20.10 C-3.40 21.75 -3.73 23.40 -4.07 25.10 C-6.71 25.10 -9.35 25.10 -12.07 25.10 C-10.25 19.33 -8.18 13.71 -5.94 8.10 C-5.68 7.43 -5.41 6.76 -5.14 6.06 C-2.75 0.13 -2.75 0.13 0 0 Z M0.93 8.10 C0.60 10.41 0.27 12.72 -0.07 15.10 C1.25 15.10 2.57 15.10 3.93 15.10 C3.60 12.79 3.27 10.48 2.93 8.10 C2.27 8.10 1.61 8.10 0.93 8.10 Z " fill="#F8BB00" transform="translate(510.07,403.90)"/> <path d="M0 0 C2.97 0 5.94 0 9 0 C11.90 5.56 14.23 11.07 16.25 17 C16.52 17.77 16.79 18.55 17.06 19.35 C17.71 21.23 18.36 23.11 19 25 C16.03 25 13.06 25 10 25 C9.51 22.52 9.51 22.52 9 20 C7.54 20.06 6.08 20.15 4.63 20.25 C3.81 20.30 3.00 20.34 2.16 20.39 C-0.19 20.79 -0.19 20.79 -1.29 23.05 C-1.52 23.69 -1.76 24.34 -2 25 C-4.31 25 -6.62 25 -9 25 C-8.40 19.23 -6.23 14.38 -3.94 9.13 C-3.56 8.25 -3.18 7.37 -2.79 6.46 C-1.87 4.30 -0.94 2.15 0 0 Z M4 7 C3.34 9.64 2.68 12.28 2 15 C3.65 15 5.3 15 7 15 C6.34 12.36 5.68 9.72 5 7 C4.67 7 4.34 7 4 7 Z " fill="#F8BB00" transform="translate(339,404)"/> <path d="M0 0 C6.27 0 12.54 0 19 0 C19 1.98 19 3.96 19 6 C15.37 6 11.74 6 8 6 C8.33 6.99 8.66 7.98 9 9 C11.97 9 14.94 9 18 9 C18 10.98 18 12.96 18 15 C14.7 15 11.4 15 8 15 C8 16.32 8 17.64 8 19 C11.63 19 15.26 19 19 19 C19 20.98 19 22.96 19 25 C12.73 25 6.46 25 0 25 C0 16.75 0 8.5 0 0 Z " fill="#F8BB00" transform="translate(549,404)"/> <path d="M0 0 C6.27 0 12.54 0 19 0 C19 1.98 19 3.96 19 6 C15.37 6 11.74 6 8 6 C8.33 6.99 8.66 7.98 9 9 C11.97 9 14.94 9 18 9 C18 10.98 18 12.96 18 15 C14.7 15 11.4 15 8 15 C8 16.32 8 17.64 8 19 C11.63 19 15.26 19 19 19 C19 20.98 19 22.96 19 25 C12.73 25 6.46 25 0 25 C0 16.75 0 8.5 0 0 Z " fill="#F8BB00" transform="translate(429,404)"/> <path d="M0 0 C2.97 0 5.94 0 9 0 C10.32 4.29 11.64 8.58 13 13 C14.90 10.14 15.69 8.07 16.63 4.81 C16.89 3.91 17.15 3.01 17.41 2.08 C17.61 1.39 17.80 0.71 18 0 C20.64 0 23.28 0 26 0 C24.44 8.74 21.22 16.76 18 25 C14.7 25 11.4 25 8 25 C6.66 21.21 5.33 17.42 4 13.63 C3.62 12.54 3.24 11.46 2.84 10.35 C2.48 9.32 2.12 8.29 1.75 7.23 C1.41 6.27 1.08 5.32 0.73 4.34 C0 2 0 2 0 0 Z " fill="#F8BB00" transform="translate(114,404)"/> <path d="M0 0 C7.59 0 15.18 0 23 0 C23 1.98 23 3.96 23 6 C20.69 6 18.38 6 16 6 C16 12.27 16 18.54 16 25 C13.36 25 10.72 25 8 25 C8 18.73 8 12.46 8 6 C5.69 6 3.38 6 1 6 C0.67 5.67 0.34 5.34 0 5 C0 3.35 0 1.7 0 0 Z " fill="#F8BB00" transform="translate(477,404)"/> <path d="M0 0 C2.64 0 5.28 0 8 0 C8 6.27 8 12.54 8 19 C11.63 19 15.26 19 19 19 C19 20.98 19 22.96 19 25 C12.73 25 6.46 25 0 25 C0 16.75 0 8.5 0 0 Z " fill="#F8BB00" transform="translate(528,404)"/> <path d="M0 0 C0.66 0 1.32 0 2 0 C2 0.66 2 1.32 2 2 C3.05 2.37 3.05 2.37 4.11 2.76 C7.40 4.17 10.19 5.94 13.18 7.91 C13.75 8.29 14.32 8.66 14.90 9.05 C16.71 10.24 18.51 11.43 20.31 12.63 C21.54 13.44 22.77 14.25 24.00 15.05 C27.00 17.03 30.00 19.01 33 21 C32.67 22.32 32.34 23.64 32 25 C27.86 24.35 24.42 22.99 20.61 21.28 C19.40 20.74 18.20 20.20 16.96 19.65 C15.70 19.08 14.45 18.51 13.19 17.94 C11.91 17.36 10.63 16.79 9.35 16.22 C6.23 14.82 3.12 13.41 0 12 C0 8.04 0 4.08 0 0 Z " fill="#F8BB00" transform="translate(240,201)"/> <path d="M0 0 C2.64 0 5.28 0 8 0 C8 6.27 8 12.54 8 19 C11.63 19 15.26 19 19 19 C18.67 20.98 18.34 22.96 18 25 C12.06 25 6.12 25 0 25 C0 16.75 0 8.5 0 0 Z " fill="#F8BB00" transform="translate(193,404)"/> <path d="M0 0 C1.32 3.3 2.64 6.6 4 10 C1.57 11.17 -0.87 12.34 -3.31 13.5 C-4.00 13.83 -4.69 14.17 -5.40 14.51 C-10.66 17 -10.66 17 -14 17 C-14.67 15.71 -15.34 14.42 -16 13.13 C-16.37 12.41 -16.74 11.69 -17.13 10.95 C-18 9 -18 9 -18 7 C-15.38 5.83 -12.75 4.66 -10.13 3.5 C-9.38 3.17 -8.63 2.83 -7.86 2.49 C-7.15 2.17 -6.43 1.86 -5.70 1.53 C-5.04 1.24 -4.38 0.94 -3.70 0.64 C-2 0 -2 0 0 0 Z " fill="#F8BB00" transform="translate(423,198)"/> <path d="M0 0 C6.20 1.94 12.11 4.26 18 7 C17.60 8.48 17.18 9.96 16.75 11.44 C16.52 12.26 16.29 13.08 16.05 13.93 C15 16 15 16 13.34 17 C9.70 17 6.88 15.25 3.75 13.56 C3.10 13.22 2.45 12.89 1.78 12.54 C0.18 11.70 -1.41 10.85 -3 10 C-2.34 6.45 -1.43 3.33 0 0 Z " fill="#F8BB00" transform="translate(178,198)"/> <path d="M0 0 C2.64 0 5.28 0 8 0 C8 8.25 8 16.5 8 25 C5.36 25 2.72 25 0 25 C0 16.75 0 8.5 0 0 Z " fill="#F8BB00" transform="translate(417,404)"/> <path d="M0 0 C2.64 0 5.28 0 8 0 C8 8.25 8 16.5 8 25 C5.36 25 2.72 25 0 25 C0 16.75 0 8.5 0 0 Z " fill="#F8BB00" transform="translate(181,404)"/> <path d="M0 0 C2.64 0 5.28 0 8 0 C8 8.25 8 16.5 8 25 C5.36 25 2.72 25 0 25 C0 16.75 0 8.5 0 0 Z " fill="#F8BB00" transform="translate(142,404)"/> <path d="M0 0 C2.64 0 5.28 0 8 0 C8 8.25 8 16.5 8 25 C5.36 25 2.72 25 0 25 C0 16.75 0 8.5 0 0 Z " fill="#F8BB00" transform="translate(93,404)"/> <path d="M0 0 C1.21 0.03 1.21 0.03 2.44 0.06 C3.80 3.05 5.13 6.05 6.44 9.06 C6.76 9.78 7.08 10.49 7.41 11.23 C9.23 15.59 9.70 18.49 8.44 23.06 C6.69 23.81 6.69 23.81 4.44 24.06 C0.59 21.02 -0.76 17.68 -2.38 13.13 C-3.03 11.32 -3.03 11.32 -3.71 9.47 C-4.56 6.09 -4.64 4.33 -3.56 1.06 C-2.56 0.06 -2.56 0.06 0 0 Z " fill="#F8BB00" transform="translate(352.56,221.94)"/> <path d="M0 0 C3.72 1.68 4.27 4.01 5.71 7.71 C6.01 8.53 6.31 9.34 6.63 10.19 C6.94 10.91 7.25 11.64 7.57 12.39 C9.25 16.36 10.05 19.05 8.63 23.19 C6.31 23.88 6.31 23.88 3.63 24.19 C0.19 21.78 -0.71 18.14 -2.06 14.31 C-2.50 13.10 -2.94 11.88 -3.39 10.63 C-4.27 7.55 -4.77 5.35 -4.38 2.19 C-2.38 0.19 -2.38 0.19 0 0 Z " fill="#F8BB00" transform="translate(362.38,217.81)"/> <path d="M0 0 C1.94 0.06 1.94 0.06 4 1 C6.25 4.34 7.80 7.73 9.19 11.5 C9.53 12.42 9.88 13.34 10.23 14.28 C11.01 17.04 11.30 19.15 11 22 C9 24 9 24 6.63 24.19 C2.90 22.50 2.36 20.18 0.92 16.48 C0.62 15.66 0.31 14.84 0 14 C-0.47 12.89 -0.47 12.89 -0.95 11.77 C-2.48 8.09 -3.39 5.78 -2 2 C-1.34 1.34 -0.68 0.68 0 0 Z " fill="#F8BB00" transform="translate(341,225)"/> <path d="M0 0 C2.63 0.38 2.63 0.38 5 1 C6.43 6.31 5.31 9.87 3.19 14.75 C2.78 15.76 2.78 15.76 2.36 16.79 C1.17 19.63 0.20 21.80 -2 24 C-4.63 23.63 -4.63 23.63 -7 23 C-8.71 17.98 -7.06 14.49 -5.19 9.81 C-4.91 9.09 -4.64 8.36 -4.36 7.62 C-2.29 2.29 -2.29 2.29 0 0 Z " fill="#F8BB00" transform="translate(257,225)"/> <path d="M0 0 C4.56 0.56 4.56 0.56 6 2 C5.67 9.20 3.13 18.87 -2 24 C-4.93 23.63 -5.86 23.14 -8 21 C-7.62 14.27 -4.79 4.79 0 0 Z " fill="#F8BB00" transform="translate(247,222)"/> <path d="M0 0 C4.56 0.56 4.56 0.56 6 2 C6.45 7.08 5.17 11.16 3.31 15.81 C3.07 16.49 2.82 17.17 2.57 17.87 C1.80 19.83 1.80 19.83 0 23 C-2.71 23.95 -2.71 23.95 -5 24 C-6.67 22.04 -6.67 22.04 -8 19 C-7.56 15.93 -6.45 13.18 -5.31 10.31 C-5.03 9.54 -4.75 8.77 -4.46 7.97 C-2.33 2.33 -2.33 2.33 0 0 Z " fill="#F8BB00" transform="translate(237,218)"/> <path d="M0 0 C1.94 1.81 1.94 1.81 3 4 C3 4.99 3 5.98 3 7 C0.76 8.04 -1.49 9.05 -3.75 10.06 C-4.38 10.36 -5.02 10.65 -5.67 10.96 C-10.45 13.07 -10.45 13.07 -13.45 12.68 C-13.96 12.46 -14.47 12.23 -15 12 C-15.5 8.81 -15.5 8.81 -15 5 C-10.86 0.74 -5.88 -1.04 0 0 Z " fill="#F8BB00" transform="translate(418,190)"/> <path d="M0 0 C4.84 0.46 8.35 2.05 11.94 5.38 C12.98 8.07 13.13 8.92 12 11.63 C11.47 12.49 11.47 12.49 10.94 13.38 C6.70 12.75 3.41 11.27 -0.38 9.31 C-1.44 8.76 -2.51 8.22 -3.61 7.65 C-4.83 7.02 -4.83 7.02 -6.06 6.38 C-3.79 0.46 -3.79 0.46 0 0 Z " fill="#F8BB00" transform="translate(186.06,189.63)"/> <path d="M0 0 C1.88 1.69 1.88 1.69 3 4 C2.92 7.26 2.48 8.53 0.13 10.81 C-2 12 -2 12 -5 12 C-5.99 8.7 -6.98 5.4 -8 2 C-4.78 -0.15 -3.74 -0.56 0 0 Z " fill="#F8BB00" transform="translate(433,195)"/> <path d="M0 0 C0.93 0.21 1.86 0.41 2.81 0.63 C3.77 2.79 3.96 4.19 3.21 6.45 C2.45 8.19 1.64 9.91 0.81 11.63 C-4.94 10 -4.94 10 -7.19 6.63 C-7 4.06 -7 4.06 -6.19 1.63 C-3.19 -0.38 -3.19 -0.38 0 0 Z " fill="#F8BB00" transform="translate(172.19,195.38)"/> <path d="M0 0 C2.90 0.47 3.87 0.87 6 3 C6.36 5.80 6.34 7.40 4.94 9.88 C1.88 11.65 -0.66 10.69 -4 10 C-3.52 8.52 -3.04 7.04 -2.56 5.56 C-2.30 4.74 -2.03 3.92 -1.75 3.07 C-1 1 -1 1 0 0 Z " fill="#F8BB00" transform="translate(390,289)"/> <path d="M0 0 C3.08 6.4 3.08 6.4 2.69 9.44 C2.46 9.95 2.23 10.47 2 11 C-0.81 11.25 -0.81 11.25 -4 11 C-6 9.31 -6 9.31 -7 7 C-6.06 3.07 -4.53 0 0 0 Z " fill="#F8BB00" transform="translate(212,289)"/> <path d="M0 0 C3 6.5 3 6.5 3 11 C1.02 11.66 -0.96 12.32 -3 13 C-3.99 9.37 -4.98 5.74 -6 2 C-2 0 -2 0 0 0 Z " fill="#F8BB00" transform="translate(339,235)"/> <path d="M0 0 C1.98 0.66 3.96 1.32 6 2 C5.01 5.63 4.02 9.26 3 13 C1.02 12.34 -0.96 11.68 -3 11 C-2.69 9.54 -2.38 8.08 -2.06 6.63 C-1.89 5.81 -1.71 5.00 -1.54 4.16 C-1 2 -1 2 0 0 Z " fill="#F8BB00" transform="translate(262,235)"/> </svg> 